<?xml version="1.0" standalone="no"?>
<!DOCTYPE svg PUBLIC "-//W3C//DTD SVG 20010904//EN"
 "http://www.w3.org/TR/2001/REC-SVG-20010904/DTD/svg10.dtd">
<svg version="1.0" xmlns="http://www.w3.org/2000/svg"
 width="2467.000000pt" height="2398.000000pt" viewBox="0 0 2467.000000 2398.000000"
 preserveAspectRatio="xMidYMid meet">

<g transform="translate(0.000000,2398.000000) scale(0.100000,-0.100000)"
fill="#000000" stroke="none">
<path d="M11850 23964 c-364 -19 -767 -50 -915 -69 -16 -2 -57 -7 -90 -10 -33
-3 -141 -17 -240 -31 -2749 -377 -5268 -1637 -7192 -3598 -1622 -1651 -2715
-3695 -3172 -5926 -67 -329 -134 -757 -166 -1065 -53 -518 -60 -659 -60 -1275
0 -427 8 -774 20 -835 2 -11 7 -63 10 -115 9 -143 43 -452 71 -655 304 -2190
1214 -4232 2655 -5955 431 -515 995 -1080 1504 -1506 1484 -1241 3188 -2101
5070 -2559 461 -113 1049 -219 1460 -265 55 -6 114 -13 130 -15 76 -10 483
-45 595 -51 69 -3 141 -8 160 -10 67 -10 1046 -13 1215 -4 1830 93 3492 524
5070 1312 2786 1394 4941 3787 5985 6648 417 1144 648 2317 700 3560 9 206 6
914 -5 1020 -2 25 -7 97 -10 160 -17 322 -78 857 -140 1222 -311 1840 -1060
3578 -2194 5093 -818 1094 -1850 2070 -2991 2832 -1348 900 -2868 1532 -4455
1852 -560 113 -1217 199 -1720 226 -66 4 -136 9 -155 11 -42 6 -1048 13 -1140
8z m1080 -49 c41 -3 149 -10 240 -15 173 -11 269 -18 335 -25 22 -2 90 -9 150
-15 784 -78 1653 -256 2425 -496 1598 -497 3126 -1338 4370 -2408 340 -292
855 -793 1127 -1096 1531 -1707 2512 -3723 2887 -5935 27 -158 80 -545 91
-655 3 -36 8 -81 10 -100 8 -59 24 -240 30 -350 4 -58 9 -121 11 -140 9 -64
13 -1173 4 -1295 -5 -66 -11 -169 -15 -230 -3 -60 -8 -123 -10 -140 -2 -16 -7
-61 -10 -100 -3 -38 -15 -149 -26 -245 -353 -3141 -1988 -6021 -4549 -8011
-1128 -878 -2454 -1576 -3815 -2009 -770 -246 -1540 -413 -2350 -509 -146 -18
-246 -27 -575 -56 -184 -16 -531 -28 -835 -29 -328 -1 -819 10 -847 18 -7 3
-62 7 -123 10 -291 16 -757 68 -1125 127 -1580 253 -3088 803 -4458 1626
-2211 1328 -3947 3328 -4929 5678 -453 1084 -745 2267 -847 3440 -34 389 -43
601 -43 1035 0 507 16 815 67 1280 148 1343 522 2628 1116 3839 172 350 286
561 487 896 1567 2614 4131 4572 7112 5430 727 209 1458 351 2195 425 113 11
223 22 245 25 22 2 87 7 145 10 58 4 157 10 220 14 63 4 191 9 285 10 93 1
172 5 175 8 5 6 706 -4 830 -12z"/>
<path d="M11895 23380 c-271 -11 -503 -27 -810 -56 -151 -14 -549 -68 -740
-99 -1894 -315 -3669 -1066 -5185 -2195 -1817 -1354 -3184 -3176 -3940 -5250
-465 -1277 -686 -2596 -665 -3969 3 -200 7 -366 9 -370 2 -3 7 -69 10 -146 4
-77 9 -147 11 -155 2 -8 6 -58 10 -110 21 -322 109 -926 191 -1310 92 -431
203 -841 345 -1262 49 -148 89 -279 89 -293 0 -29 74 -263 97 -310 9 -16 30
-48 48 -70 18 -22 49 -79 68 -125 116 -280 350 -759 518 -1060 416 -747 914
-1442 1499 -2095 183 -205 648 -669 855 -855 1131 -1014 2412 -1786 3828
-2309 972 -359 1983 -590 3021 -690 110 -11 246 -23 301 -26 55 -3 118 -8 140
-10 224 -22 1100 -29 1278 -10 18 2 95 6 172 10 227 10 520 36 795 71 1234
155 2397 482 3512 988 2149 974 3982 2601 5180 4596 269 447 505 913 739 1458
10 23 22 42 28 42 6 0 26 21 45 46 45 58 136 325 136 398 0 34 24 121 79 290
242 737 390 1398 485 2171 21 167 33 304 58 625 17 222 17 1146 0 1380 -56
768 -161 1428 -333 2088 -594 2282 -1893 4314 -3743 5859 -1402 1171 -3100
2016 -4896 2438 -440 103 -954 193 -1375 240 -77 8 -158 17 -180 20 -100 12
-393 35 -515 40 -74 4 -148 8 -165 10 -65 9 -821 13 -1000 5z m1120 -94 c129
-7 130 -7 400 -31 2284 -199 4459 -1051 6255 -2449 950 -739 1786 -1630 2452
-2611 628 -925 1126 -1963 1443 -3011 178 -586 298 -1151 390 -1834 13 -98 46
-444 55 -585 5 -88 12 -190 15 -227 27 -366 4 -1320 -40 -1633 -2 -16 -7 -61
-10 -100 -4 -38 -8 -79 -10 -90 -2 -11 -7 -47 -10 -80 -19 -187 -97 -656 -156
-930 -80 -374 -173 -725 -296 -1107 l-67 -208 -42 44 c-49 52 -88 73 -201 110
-80 27 -82 28 -72 53 23 61 142 454 188 623 184 672 316 1473 347 2100 3 69 8
136 10 150 9 48 12 777 4 943 -14 294 -29 499 -51 687 -5 47 -12 108 -15 135
-23 213 -78 565 -129 820 -324 1617 -1009 3115 -2028 4439 -1728 2244 -4290
3769 -7137 4250 -113 19 -241 40 -285 46 -44 6 -93 13 -110 15 -244 36 -713
77 -1080 95 -319 15 -932 8 -1267 -14 -149 -11 -437 -36 -518 -46 -41 -5 -97
-12 -125 -15 -27 -3 -66 -8 -85 -10 -1845 -237 -3579 -896 -5090 -1935 -2125
-1461 -3675 -3601 -4354 -6010 -176 -626 -296 -1260 -350 -1860 -3 -30 -8 -82
-11 -115 -21 -219 -26 -350 -32 -755 -7 -551 8 -876 62 -1350 79 -701 245
-1460 455 -2085 27 -82 50 -150 50 -151 0 -1 -30 -12 -68 -25 -104 -34 -155
-64 -204 -118 l-46 -51 -25 68 c-41 113 -143 446 -201 657 -178 651 -290 1281
-351 1970 -42 475 -46 1257 -10 1745 96 1269 399 2482 911 3640 95 216 322
672 444 891 437 786 953 1500 1571 2174 163 178 564 577 734 731 1040 941
2235 1687 3535 2209 1320 530 2738 820 4169 854 272 6 752 0 986 -13z m-160
-471 c83 -3 173 -8 200 -10 28 -3 91 -7 140 -10 85 -5 145 -10 240 -20 22 -2
90 -9 150 -15 239 -24 582 -74 866 -125 1469 -268 2871 -821 4131 -1629 1762
-1130 3178 -2744 4040 -4606 554 -1197 882 -2503 954 -3795 3 -66 8 -138 10
-160 4 -54 4 -861 -1 -905 -2 -19 -6 -93 -10 -165 -34 -708 -180 -1565 -391
-2292 -53 -185 -143 -465 -153 -475 -6 -7 -2044 662 -2057 674 -3 3 18 75 45
159 217 664 348 1367 391 2089 8 146 5 917 -4 1000 -3 25 -10 106 -16 180 -47
573 -175 1215 -353 1775 -357 1123 -934 2141 -1733 3055 -261 300 -757 775
-1081 1037 -1412 1142 -3150 1847 -4978 2017 -218 21 -294 26 -462 33 -314 13
-1084 5 -1112 -11 -4 -2 -55 -7 -116 -10 -60 -4 -121 -9 -135 -11 -14 -2 -52
-7 -85 -10 -750 -74 -1569 -265 -2300 -537 -2554 -951 -4528 -2954 -5356
-5438 -220 -659 -368 -1401 -404 -2025 -3 -55 -8 -120 -11 -144 -16 -143 -10
-762 10 -1051 46 -648 182 -1343 381 -1949 31 -95 53 -177 48 -181 -16 -15
-2047 -680 -2054 -673 -4 5 -27 71 -52 148 -246 760 -403 1522 -472 2295 -8
96 -17 195 -20 220 -29 314 -27 1135 5 1535 147 1846 740 3549 1771 5085 620
923 1397 1764 2288 2475 1084 865 2380 1549 3709 1959 587 181 1207 322 1772
401 63 9 126 18 140 20 80 12 402 46 565 59 105 9 215 18 245 20 30 3 186 8
345 12 160 4 292 9 295 11 5 4 326 -2 615 -12z m-25 -2275 c1290 -65 2541
-392 3680 -961 1736 -867 3125 -2244 3966 -3930 350 -701 593 -1435 734 -2214
32 -177 84 -568 95 -715 4 -47 8 -96 11 -109 24 -155 23 -1038 -1 -1256 -3
-22 -12 -110 -20 -195 -57 -573 -179 -1154 -356 -1697 -28 -84 -53 -153 -57
-153 -4 0 -36 9 -70 20 -78 25 -151 25 -219 1 l-51 -17 29 79 c48 132 137 430
189 632 131 508 213 1045 238 1555 13 283 6 868 -13 1027 -2 21 -12 112 -20
203 -52 538 -184 1149 -366 1693 -466 1390 -1315 2641 -2459 3623 -1202 1033
-2681 1722 -4275 1994 -93 16 -208 34 -255 40 -211 27 -310 39 -380 45 -41 3
-86 8 -100 10 -14 2 -79 7 -145 10 -66 3 -136 8 -155 10 -19 2 -127 7 -240 11
-113 3 -208 8 -212 10 -3 2 -98 0 -210 -6 -111 -5 -259 -12 -328 -15 -431 -20
-974 -92 -1422 -190 -2192 -478 -4080 -1724 -5325 -3515 -760 -1092 -1248
-2399 -1383 -3700 -17 -167 -19 -185 -31 -372 -11 -174 -7 -908 6 -1043 33
-351 54 -523 91 -740 68 -402 171 -815 299 -1195 25 -74 45 -135 45 -136 0 -1
-28 0 -62 3 -52 4 -80 -1 -159 -26 -53 -17 -99 -31 -102 -31 -9 0 -100 286
-163 509 -130 467 -219 960 -270 1506 -21 233 -30 866 -15 1132 58 1012 288
1970 695 2885 715 1609 1940 2980 3497 3915 1055 633 2218 1045 3454 1222 234
33 279 38 530 61 404 35 862 43 1305 20z m-543 -384 c2 -2 3 -1187 3 -2635 l0
-2633 -77 -4 c-178 -8 -443 -37 -464 -50 -10 -6 -11 -1 -60 236 -23 113 -51
252 -63 310 l-22 105 -38 -2 c-22 -2 -40 -4 -42 -6 -3 -3 77 -397 120 -595 11
-47 11 -64 3 -67 -7 -2 -59 -15 -117 -30 -58 -14 -149 -41 -203 -59 -53 -18
-99 -31 -101 -27 -2 3 -81 191 -176 416 -94 226 -176 414 -180 419 -11 11 -70
-12 -70 -28 0 -6 52 -134 115 -284 147 -349 223 -534 227 -549 2 -7 -47 -36
-117 -68 -66 -30 -167 -82 -224 -115 -58 -33 -107 -56 -110 -51 -59 92 -359
510 -366 511 -5 0 -22 -10 -37 -23 l-27 -22 179 -254 c99 -140 180 -258 180
-262 0 -4 -30 -29 -67 -55 -38 -27 -104 -77 -147 -112 l-79 -64 -81 83 c-44
46 -197 202 -339 346 l-259 262 -29 -21 c-16 -12 -29 -25 -29 -29 0 -3 151
-160 335 -348 184 -188 335 -345 335 -349 0 -4 -41 -48 -91 -97 -50 -50 -120
-126 -157 -170 -36 -44 -69 -84 -73 -89 -4 -4 -99 53 -210 129 l-204 137 -22
-27 c-13 -14 -23 -30 -23 -35 0 -6 89 -69 198 -141 108 -73 198 -133 200 -135
2 -1 -23 -43 -57 -92 -33 -49 -84 -132 -113 -184 l-53 -95 -40 18 c-526 228
-877 379 -881 379 -6 0 -37 -71 -32 -75 2 -1 98 -43 213 -93 335 -143 675
-291 690 -299 11 -7 7 -23 -21 -88 -38 -85 -124 -335 -124 -359 0 -8 -4 -17
-8 -20 -4 -2 -147 24 -317 60 -169 35 -314 64 -321 64 -12 0 -31 -66 -22 -75
2 -3 145 -34 318 -70 173 -36 315 -67 317 -68 1 -2 -6 -48 -17 -103 -18 -95
-31 -213 -45 -406 l-7 -88 -2805 0 -2806 0 7 183 c7 185 8 202 26 412 71 820
264 1597 591 2372 79 188 275 590 369 758 312 557 680 1068 1101 1530 163 180
507 518 674 664 1130 988 2502 1670 3970 1974 162 34 464 88 570 102 28 3 61
8 75 10 14 2 70 9 125 15 55 6 114 13 130 16 87 12 435 35 610 41 110 3 201 7
203 8 3 3 86 -6 89 -9z m598 -7 c466 -33 829 -80 1225 -159 2265 -453 4253
-1771 5495 -3645 583 -880 986 -1863 1179 -2877 61 -320 107 -679 121 -938 3
-58 8 -121 10 -141 2 -20 5 -96 6 -170 l1 -134 -2836 -3 -2836 -2 0 67 c0 89
-17 266 -35 372 -8 47 -14 86 -12 87 2 2 287 54 465 85 76 13 81 18 66 74 l-5
21 -127 -22 c-70 -13 -192 -34 -272 -48 -149 -26 -159 -25 -160 14 0 23 -54
195 -93 300 -20 52 -33 98 -29 101 4 3 192 75 417 159 226 84 412 154 413 156
7 5 -19 74 -27 74 -5 0 -194 -70 -421 -155 -227 -85 -416 -155 -419 -155 -4 0
-22 30 -40 68 -45 91 -133 241 -194 330 -30 44 -46 76 -40 80 5 4 91 60 191
125 l181 118 -21 34 c-17 30 -23 33 -40 24 -19 -10 -197 -125 -312 -201 -48
-32 -61 -37 -71 -26 -6 7 -50 58 -97 114 -48 55 -123 135 -167 177 -45 43 -81
80 -81 85 0 4 83 90 185 192 l186 186 -32 29 -31 30 -188 -193 -189 -193 -78
61 c-43 34 -129 96 -190 137 l-113 75 192 285 c183 273 191 286 172 300 -50
38 -40 49 -243 -256 l-193 -288 -112 57 c-62 31 -171 80 -242 108 -71 29 -128
56 -127 61 2 5 75 194 163 420 88 226 160 413 160 416 0 5 -72 37 -75 33 -1
-2 -21 -52 -44 -113 -81 -209 -284 -730 -287 -734 -2 -2 -65 13 -141 32 -76
20 -176 43 -222 52 -47 8 -87 17 -89 20 -3 3 18 134 46 292 28 159 47 291 44
295 -4 3 -22 8 -41 10 l-35 3 -11 -65 c-6 -36 -29 -166 -50 -290 -21 -124 -41
-228 -44 -231 -3 -4 -37 -3 -76 2 -38 4 -107 9 -152 10 l-83 2 0 2639 0 2639
198 -2 c108 -1 247 -6 307 -10z m-390 -5350 c528 -35 1019 -199 1450 -485 152
-101 259 -188 404 -329 161 -156 261 -277 381 -457 168 -253 285 -516 360
-813 61 -240 74 -354 75 -630 0 -243 -7 -318 -46 -515 -173 -866 -797 -1616
-1643 -1975 -115 -49 -335 -125 -361 -125 -13 0 -15 109 -15 965 l0 965 930 0
930 0 0 650 0 650 -930 0 -930 0 0 675 0 675 -800 0 -800 0 0 -675 0 -675
-930 0 -930 0 0 -650 0 -650 930 0 930 0 0 -965 c0 -531 -2 -965 -5 -965 -3 0
-55 16 -115 36 -530 171 -1013 504 -1360 939 -236 296 -432 705 -514 1075 -80
363 -80 755 0 1120 265 1203 1357 2094 2649 2163 133 7 187 7 340 -4z m-3124
-2866 c0 -38 2 -75 4 -83 1 -8 6 -52 10 -96 l7 -82 -29 -6 c-15 -3 -153 -28
-307 -56 -153 -27 -280 -51 -283 -54 -9 -9 10 -76 22 -76 7 0 46 7 86 15 41 8
169 30 284 50 116 20 217 38 226 41 14 4 22 -16 44 -112 15 -65 42 -162 59
-216 30 -91 31 -100 15 -108 -9 -5 -203 -79 -430 -164 -228 -85 -422 -157
-431 -161 -14 -6 -15 -11 -4 -43 9 -24 19 -36 29 -34 8 1 211 76 451 166 l435
163 12 -31 c25 -64 138 -284 187 -366 28 -46 50 -85 49 -86 -1 -1 -87 -57
-192 -124 -104 -67 -194 -126 -198 -130 -10 -9 19 -70 33 -70 6 0 97 56 204
125 106 69 198 125 203 125 6 0 13 -6 16 -13 10 -26 164 -212 245 -297 l81
-85 -187 -187 -186 -187 24 -26 c13 -14 28 -25 34 -25 5 0 90 83 189 185 l179
185 37 -30 c99 -84 232 -189 278 -220 29 -19 53 -38 53 -43 0 -4 -81 -128
-180 -277 l-180 -269 29 -20 c16 -12 33 -21 38 -21 4 1 84 115 177 254 93 139
175 261 182 270 11 15 23 11 126 -47 100 -56 275 -141 344 -167 l24 -10 -24
-62 c-23 -60 -273 -701 -282 -723 -5 -12 64 -40 74 -30 4 3 75 180 158 393
104 265 156 386 165 385 8 -1 62 -17 121 -35 l108 -33 0 -2767 0 -2767 -27 4
c-16 3 -109 14 -208 25 -1460 169 -2869 709 -4064 1559 -626 445 -1080 876
-1577 1497 -466 583 -906 1298 -1158 1884 -32 74 -62 140 -66 145 -4 6 -20 48
-35 95 -36 112 -50 137 -96 186 -33 33 -48 66 -90 185 -256 730 -402 1532
-425 2337 l-7 232 2811 0 2812 0 1 -67z m11550 10 c10 -612 -98 -1392 -286
-2063 -201 -719 -557 -1520 -908 -2045 -680 -1018 -1554 -1924 -2427 -2516
-1126 -764 -2463 -1263 -3840 -1433 -113 -14 -238 -27 -277 -28 l-73 -3 0
2759 c0 1518 3 2763 7 2766 11 9 214 72 218 68 5 -5 32 -68 176 -413 72 -170
132 -311 133 -313 9 -9 78 29 73 40 -3 7 -71 169 -151 360 -80 191 -146 351
-146 356 0 4 17 14 38 21 52 19 304 142 378 185 l61 36 144 -205 c78 -113 145
-205 148 -205 3 0 19 11 35 23 l29 24 -142 203 c-78 111 -139 206 -134 210 4
3 40 29 78 56 39 26 106 77 150 113 l79 64 292 -296 291 -296 29 30 28 29 -99
103 c-55 56 -185 188 -289 294 l-189 191 79 79 c83 81 191 201 238 266 16 20
32 37 37 37 5 0 69 -40 142 -88 72 -49 137 -91 142 -94 6 -4 20 9 33 28 l22
34 -145 97 -145 96 17 26 c54 82 136 217 173 287 l44 81 275 -120 c152 -66
331 -143 399 -172 l123 -53 14 29 c21 40 19 47 -17 63 -226 96 -752 326 -755
330 -2 2 7 30 21 63 37 89 101 279 121 361 16 66 20 73 39 68 12 -3 120 -26
241 -51 121 -24 230 -47 242 -50 19 -4 24 1 32 32 13 46 11 47 -93 67 -111 21
-420 86 -423 89 -1 2 4 39 12 82 13 76 35 284 35 333 l0 22 2835 0 2835 0 1
-57z m-16774 -2704 c70 -37 105 -89 151 -231 55 -166 56 -178 37 -245 -13 -46
-28 -69 -68 -108 l-52 -50 -1281 -422 c-881 -291 -1295 -423 -1324 -423 -71 0
-121 21 -171 70 -42 42 -51 60 -93 186 -56 168 -59 217 -18 295 17 32 44 65
68 82 30 21 399 147 1320 453 1411 468 1329 445 1431 393z m17822 -374 c674
-223 1246 -412 1270 -421 90 -34 161 -131 161 -222 0 -25 -20 -104 -46 -184
-41 -126 -50 -145 -92 -188 -45 -46 -118 -80 -173 -80 -27 0 -87 19 -1377 446
-1107 367 -1196 398 -1233 431 -48 44 -77 97 -85 157 -5 35 3 71 42 192 46
139 52 152 99 199 53 54 94 72 164 74 32 1 359 -103 1270 -404z m-285 -725
c566 -187 1030 -341 1032 -343 11 -11 -295 -636 -438 -895 -195 -352 -472
-788 -707 -1110 -1531 -2105 -3766 -3614 -6326 -4272 -779 -200 -1485 -305
-2400 -356 -150 -8 -906 -9 -1000 -1 -39 4 -133 9 -210 12 -77 4 -151 8 -165
10 -14 2 -63 6 -110 10 -77 5 -413 40 -485 50 -16 2 -52 6 -80 10 -1259 162
-2518 550 -3670 1131 -1339 675 -2509 1588 -3474 2712 -657 764 -1212 1633
-1635 2557 l-55 120 1032 342 c568 189 1035 343 1039 343 5 0 49 -81 98 -181
512 -1021 1238 -1949 2115 -2704 139 -119 510 -415 710 -565 1139 -855 2497
-1410 3960 -1619 446 -64 793 -90 1285 -98 1381 -22 2637 229 3850 769 205 91
618 303 805 413 909 534 1494 980 2120 1616 658 669 1176 1395 1591 2232 44
86 81 157 84 157 3 0 468 -153 1034 -340z"/>
<path d="M12256 22603 c-1 -1 -92 -3 -201 -3 -110 -1 -253 -4 -318 -7 l-118
-6 5 -96 c3 -53 8 -233 11 -401 9 -543 15 -842 21 -1008 l6 -162 357 6 c196 4
370 8 386 9 17 1 58 3 93 4 l62 1 0 137 0 136 -323 -6 -324 -7 -6 128 c-4 70
-7 168 -7 218 l0 91 48 7 c26 3 142 6 257 6 116 1 226 3 245 6 l35 6 -3 135
-3 136 -295 -7 -294 -7 0 199 0 199 158 6 c86 4 228 7 315 7 l158 0 -2 140 -1
141 -130 -3 c-71 -1 -130 -4 -132 -5z"/>
<path d="M12876 22494 c-4 -55 -9 -117 -11 -139 -5 -41 -44 -492 -90 -1030
-14 -165 -27 -321 -30 -347 -6 -55 -9 -54 153 -64 l102 -6 1 53 c0 30 2 63 4
74 2 11 13 137 25 280 12 143 23 270 26 283 5 26 -12 25 184 7 25 -3 101 -9
170 -15 69 -6 146 -13 171 -15 l47 -5 6 43 c12 92 18 225 10 230 -5 2 -74 10
-154 16 -80 7 -162 14 -184 16 -21 3 -81 8 -132 11 -52 4 -94 10 -94 13 0 3 5
49 10 101 5 52 12 138 15 190 4 52 10 98 14 101 3 4 47 3 96 -2 203 -19 325
-29 410 -35 50 -4 93 -8 96 -10 8 -5 16 54 25 179 4 68 3 97 -5 97 -6 0 -161
13 -343 29 -183 16 -374 33 -424 37 l-91 6 -7 -98z"/>
<path d="M10550 22474 c-135 -19 -250 -36 -256 -38 -8 -3 -9 -22 -3 -63 5 -32
22 -157 39 -278 16 -121 37 -269 45 -330 49 -353 98 -715 111 -815 23 -178 20
-172 57 -166 18 2 74 10 125 17 50 6 92 15 92 18 0 3 -18 142 -41 309 -23 167
-40 305 -37 307 2 2 26 7 54 10 l51 7 199 -267 c110 -147 206 -277 215 -288
16 -20 20 -21 105 -9 49 6 113 15 142 18 28 4 52 11 52 16 0 9 -84 121 -347
465 l-94 122 42 22 c23 11 63 42 90 69 86 86 129 203 129 350 -1 168 -47 301
-140 404 -63 68 -111 101 -187 127 -95 32 -176 31 -443 -7z m340 -255 c101
-22 160 -103 168 -231 4 -65 1 -84 -18 -123 -25 -52 -67 -88 -128 -109 -40
-15 -262 -49 -269 -42 -4 3 -29 180 -56 382 l-14 102 101 15 c129 19 154 19
216 6z"/>
<path d="M14505 22363 c-280 -62 -505 -280 -603 -583 -120 -369 -46 -729 194
-949 128 -117 286 -176 469 -176 186 0 336 61 476 193 349 328 410 922 132
1267 -136 168 -327 256 -547 254 -56 -1 -110 -3 -121 -6z m206 -273 c132 -25
252 -118 315 -244 46 -95 63 -179 59 -296 -14 -351 -237 -620 -514 -620 -223
0 -394 140 -447 367 -52 224 22 499 176 653 122 123 257 169 411 140z"/>
<path d="M9466 22251 c-225 -58 -411 -111 -413 -117 -2 -7 21 -106 50 -220 30
-115 121 -467 202 -783 80 -315 150 -581 153 -591 6 -15 50 -6 437 93 237 61
432 112 434 114 6 4 -50 238 -60 254 -6 11 -51 0 -481 -111 l-148 -38 -9 36
c-63 234 -99 388 -93 393 4 3 126 37 272 74 146 37 269 71 274 76 8 7 -40 227
-55 251 -5 8 -89 -9 -285 -60 -153 -39 -280 -69 -282 -67 -6 6 -102 379 -98
383 2 2 138 37 302 79 165 42 301 78 303 80 3 2 -6 47 -19 101 -37 156 -39
162 -58 161 -9 -1 -201 -49 -426 -108z"/>
<path d="M15572 21254 c-161 -427 -291 -778 -288 -781 3 -3 56 -25 118 -48
112 -43 113 -43 121 -22 45 123 209 553 213 558 9 14 95 -23 104 -45 5 -11 30
-172 56 -356 26 -184 48 -336 49 -338 6 -8 267 -103 271 -99 4 4 -85 606 -103
700 -5 27 -5 27 45 27 251 0 471 270 472 578 0 171 -82 314 -231 401 -35 20
-506 201 -524 201 -5 0 -142 -349 -303 -776z m598 373 c101 -37 157 -83 185
-149 41 -100 -14 -257 -110 -314 -67 -39 -143 -34 -287 18 -65 24 -118 47
-118 51 0 7 82 229 159 429 l10 28 53 -21 c29 -12 78 -30 108 -42z"/>
<path d="M8235 21881 c-295 -75 -490 -281 -551 -581 -24 -120 -15 -303 20
-425 119 -409 439 -678 806 -678 131 1 227 25 354 91 74 37 109 64 187 142 62
62 106 116 126 155 l31 60 -141 350 c-77 193 -142 351 -143 353 -5 8 -534
-212 -534 -222 0 -6 21 -63 46 -127 l46 -116 146 58 c80 33 151 59 156 59 6 0
40 -72 75 -160 l63 -160 -26 -34 c-77 -102 -246 -178 -394 -178 -295 0 -559
293 -571 632 -8 243 128 447 341 511 92 28 227 23 306 -11 29 -12 55 -20 58
-17 8 7 84 216 84 228 0 16 -101 56 -183 73 -98 21 -214 19 -302 -3z"/>
<path d="M17074 21367 c-50 -89 -233 -418 -408 -730 -175 -313 -316 -570 -314
-571 22 -15 211 -116 216 -116 4 0 26 35 50 78 24 42 143 256 265 475 122 218
225 397 229 397 5 0 8 -132 8 -292 1 -265 8 -589 15 -596 1 -2 598 351 744
441 l35 21 -31 -55 c-64 -113 -276 -492 -391 -699 -66 -118 -118 -218 -116
-222 5 -8 204 -118 213 -118 4 0 22 28 40 63 19 34 62 112 97 172 34 61 182
326 329 590 147 264 285 510 306 547 21 36 39 71 39 77 0 5 -45 35 -99 66
l-99 55 -64 -39 c-230 -142 -750 -453 -752 -450 -5 6 -16 487 -16 729 l0 225
-38 20 c-20 12 -66 37 -102 58 l-66 36 -90 -162z"/>
<path d="M6165 20816 c-242 -78 -382 -299 -340 -540 18 -105 57 -180 134 -257
71 -70 143 -111 232 -130 74 -16 272 -6 398 21 143 30 243 26 293 -12 120 -91
108 -237 -27 -341 -95 -72 -228 -86 -360 -38 -33 12 -67 24 -76 27 -22 8 -79
-243 -58 -257 8 -5 50 -21 94 -35 95 -31 250 -43 336 -25 227 47 431 264 443
470 12 201 -132 416 -322 482 -112 39 -195 36 -492 -16 -52 -9 -123 -15 -157
-13 -69 4 -97 20 -147 82 -28 34 -31 45 -31 105 0 57 4 74 27 108 32 49 84 90
135 109 50 17 165 17 233 0 30 -8 57 -13 60 -11 3 2 7 18 8 37 2 18 9 73 17
122 8 49 13 92 10 94 -2 2 -35 13 -72 23 -98 27 -246 25 -338 -5z"/>
<path d="M7407 20446 c-125 -67 -233 -128 -238 -133 -8 -8 7 -45 51 -127 34
-64 64 -116 66 -116 3 0 115 59 249 131 l245 131 -62 119 c-35 65 -67 119 -73
118 -5 0 -113 -55 -238 -123z"/>
<path d="M18286 19899 c-274 -358 -499 -657 -500 -665 -2 -19 696 -554 710
-543 5 4 44 53 86 107 l76 99 -254 194 c-139 107 -253 198 -254 202 0 9 248
334 261 343 5 3 111 -74 236 -170 125 -96 231 -172 235 -170 13 8 158 202 157
211 0 4 -103 86 -229 182 -201 153 -228 177 -216 190 7 9 59 77 116 151 57 74
106 139 110 143 4 5 117 -76 251 -179 134 -103 249 -187 256 -188 7 -1 49 46
92 103 l80 104 -350 268 c-192 148 -352 269 -356 269 -5 -1 -232 -294 -507
-651z"/>
<path d="M4995 19934 c-181 -157 -330 -290 -330 -294 0 -11 1076 -1260 1084
-1260 6 0 626 532 664 569 18 17 16 21 -58 107 -43 49 -83 95 -90 103 -11 11
-49 -17 -232 -174 -120 -104 -230 -199 -244 -212 l-26 -24 -123 143 c-68 79
-134 154 -147 168 l-23 26 220 189 c121 104 219 192 218 197 -6 18 -163 197
-173 197 -5 0 -106 -83 -224 -185 -118 -101 -217 -183 -221 -182 -3 2 -38 39
-76 83 -38 44 -95 110 -127 147 l-58 66 218 188 c120 103 228 197 241 208 l22
22 -85 99 c-48 55 -89 101 -93 102 -4 1 -155 -126 -337 -283z"/>
<path d="M19203 19161 l-583 -596 323 -317 322 -317 98 97 99 97 -233 226
-233 227 153 160 154 161 211 -204 211 -204 93 92 c50 50 92 96 92 102 0 5
-93 100 -206 210 l-207 200 140 145 140 145 228 -223 229 -223 73 73 c41 40
83 85 94 100 l20 27 -228 223 c-125 123 -268 262 -318 309 l-90 86 -582 -596z"/>
<path d="M4264 19245 c-44 -47 -80 -89 -82 -93 -1 -5 266 -268 595 -586 l597
-577 90 91 91 91 -77 72 c-42 40 -311 299 -598 577 -287 278 -525 506 -529
508 -5 2 -44 -36 -87 -83z"/>
<path d="M20035 18325 c-362 -291 -639 -520 -639 -529 1 -8 34 -55 74 -105
l72 -90 226 181 c125 100 235 188 246 197 17 15 20 13 52 -24 18 -22 34 -43
34 -47 0 -4 -61 -156 -136 -337 l-136 -330 89 -110 c48 -60 91 -110 94 -110 4
-1 46 97 94 217 48 119 109 272 137 339 l50 122 46 -23 c101 -51 182 -62 282
-42 95 20 170 56 257 122 214 164 281 410 170 621 -34 66 -345 462 -362 462
-5 0 -298 -232 -650 -514z m669 60 c112 -141 138 -204 117 -283 -24 -87 -130
-182 -223 -197 -91 -16 -161 28 -279 174 -54 67 -66 88 -56 98 24 23 362 292
368 293 3 0 36 -38 73 -85z"/>
<path d="M3497 18365 c-42 -52 -77 -98 -77 -102 1 -9 1280 -1048 1290 -1048
11 0 551 667 548 676 -4 11 -199 169 -207 168 -3 0 -93 -108 -199 -240 l-193
-240 -47 39 c-51 42 -1010 820 -1028 833 -6 5 -39 -27 -87 -86z"/>
<path d="M2949 17584 c-129 -202 -235 -371 -237 -375 -2 -4 120 -85 270 -180
150 -95 466 -296 702 -446 344 -219 432 -271 442 -261 16 17 474 739 474 747
-1 8 -215 141 -226 141 -5 0 -67 -93 -139 -206 -71 -113 -148 -235 -171 -270
l-40 -64 -185 116 c-101 64 -186 118 -188 120 -2 1 68 114 154 250 122 191
155 248 144 255 -8 4 -59 37 -114 73 -75 48 -103 61 -111 53 -6 -7 -76 -113
-154 -237 -78 -124 -146 -229 -150 -234 -7 -7 -290 164 -328 198 -12 11 35 90
290 487 l36 56 -104 67 c-58 37 -111 69 -118 72 -10 4 -88 -112 -247 -362z"/>
<path d="M21445 17701 c-83 -50 -292 -174 -855 -506 -184 -109 -372 -220 -417
-246 l-82 -49 126 -213 c158 -266 167 -280 246 -354 78 -72 145 -112 252 -149
73 -26 92 -28 225 -28 128 1 155 4 233 27 188 58 337 148 468 284 149 154 218
304 227 489 5 116 -12 214 -54 304 -29 63 -276 489 -284 489 -3 0 -41 -21 -85
-48z m46 -423 c36 -62 73 -131 81 -153 96 -247 -90 -548 -413 -671 -66 -25
-87 -28 -200 -29 -124 0 -125 0 -200 37 -44 22 -93 56 -121 85 -45 46 -180
261 -172 274 4 6 116 74 614 367 107 63 227 134 265 158 39 24 72 43 75 43 3
1 35 -50 71 -111z"/>
<path d="M2575 16690 c-249 -122 -398 -364 -397 -645 1 -213 88 -405 259 -565
331 -312 829 -363 1158 -118 118 88 206 213 257 368 30 89 32 104 32 245 1
119 -3 161 -17 201 l-17 50 -339 152 c-186 84 -343 152 -348 152 -6 0 -31 -46
-56 -102 -25 -57 -77 -174 -116 -261 -39 -87 -71 -159 -71 -161 0 -6 241 -109
245 -104 2 2 33 68 68 146 36 79 68 143 71 144 4 0 76 -30 161 -68 112 -50
155 -74 159 -89 10 -38 6 -92 -14 -169 -51 -200 -175 -327 -366 -376 -285 -73
-613 77 -743 340 -121 246 -31 515 212 635 59 29 76 42 72 54 -3 9 -25 60 -48
114 -33 77 -46 97 -62 97 -11 0 -56 -18 -100 -40z"/>
<path d="M21990 16238 c-157 -66 -496 -207 -755 -315 -258 -107 -472 -196
-474 -198 -8 -9 343 -836 353 -831 231 96 238 99 233 120 -3 12 -57 147 -121
300 -64 153 -115 280 -114 281 16 15 402 165 408 159 7 -8 175 -406 209 -496
6 -16 16 -28 23 -28 23 1 243 99 241 107 -1 4 -49 123 -107 263 -58 140 -106
259 -106 265 0 10 357 161 364 154 2 -2 57 -132 122 -289 65 -157 119 -287
121 -289 2 -4 218 83 241 98 18 11 -316 821 -338 820 -8 -1 -143 -55 -300
-121z"/>
<path d="M1815 15227 c-2 -7 -17 -62 -33 -123 l-30 -112 62 -16 c33 -9 259
-68 501 -131 554 -144 543 -141 525 -149 -8 -3 -296 -96 -640 -207 -344 -111
-627 -203 -629 -205 -5 -5 -61 -217 -58 -220 1 -1 360 -95 797 -209 437 -114
800 -210 806 -212 10 -4 80 234 71 243 -2 2 -249 68 -550 147 -300 78 -540
145 -534 148 7 3 296 98 643 210 l631 203 28 108 c15 60 26 110 24 112 -2 2
-326 88 -719 191 -393 102 -755 197 -803 210 -64 17 -89 21 -92 12z"/>
<path d="M22570 14424 c-419 -82 -822 -159 -1070 -206 -91 -17 -169 -35 -173
-39 -7 -5 23 -189 38 -235 3 -11 31 -6 559 96 88 16 161 28 163 26 3 -3 -135
-161 -305 -352 -171 -191 -309 -350 -307 -353 1 -3 15 -71 30 -151 15 -80 30
-149 35 -153 4 -5 164 166 355 380 192 213 351 389 355 391 4 1 208 -88 455
-198 246 -110 450 -198 453 -195 3 3 -7 72 -23 154 l-28 148 -196 87 c-108 48
-294 131 -413 184 -119 53 -216 98 -214 99 3 3 102 22 481 93 127 24 233 46
237 49 3 3 0 38 -8 76 -8 39 -19 94 -25 123 -6 28 -13 51 -17 51 -4 -1 -176
-34 -382 -75z"/>
<path d="M2485 13414 c-324 -79 -703 -171 -842 -205 l-252 -61 -6 -41 c-3 -23
-7 -82 -8 -131 l-2 -90 800 -358 800 -358 6 43 c4 23 10 81 13 128 l8 86 -192
84 -191 83 7 71 c3 38 7 79 9 90 1 11 11 114 21 229 10 116 23 214 29 220 7 6
97 31 201 55 104 25 190 45 192 46 5 4 10 40 17 130 3 50 9 98 11 108 4 12 0
17 -13 16 -10 -1 -283 -66 -608 -145z m-85 -289 c0 -8 -7 -88 -15 -177 -8 -90
-15 -180 -17 -201 -1 -20 -5 -36 -9 -35 -145 60 -608 273 -598 277 23 7 613
149 627 150 6 1 12 -6 12 -14z"/>
<path d="M22852 13029 c-172 -9 -357 -19 -410 -23 -53 -3 -151 -8 -217 -11
-66 -3 -145 -8 -175 -10 -30 -2 -127 -7 -215 -11 -88 -5 -163 -9 -167 -10 -5
-1 -37 -2 -73 -3 l-66 -1 5 -82 c7 -107 13 -224 27 -478 5 -113 12 -223 14
-245 2 -22 4 -53 4 -70 l1 -30 112 7 c62 3 124 7 137 7 l24 1 -7 153 c-4 83
-9 179 -11 212 -2 33 -7 111 -10 173 l-6 112 53 1 c29 1 67 2 83 4 17 1 93 4
169 6 l139 4 3 -45 c7 -98 24 -441 24 -486 l0 -47 123 6 c67 4 130 7 140 7 17
0 18 7 13 88 -13 188 -28 494 -24 497 1 1 71 6 153 10 83 3 171 8 198 11 l47
4 0 -32 c0 -18 4 -96 9 -173 5 -77 13 -203 16 -280 4 -77 9 -143 11 -147 4 -7
211 0 252 8 23 5 24 8 18 62 -3 31 -8 118 -11 192 -3 74 -8 155 -10 180 -2 25
-7 115 -11 200 -4 85 -8 162 -9 170 -1 8 -2 31 -3 50 -2 27 -7 36 -19 36 -10
0 -159 -7 -331 -17z"/>
<path d="M1320 12203 c0 -80 4 -124 13 -135 7 -10 224 -83 527 -178 283 -89
521 -165 528 -169 7 -4 -216 -100 -509 -221 l-522 -214 6 -134 c4 -74 8 -136
10 -138 2 -3 1540 650 1672 709 28 13 -7 26 -835 302 -476 158 -871 290 -877
293 -10 3 -13 -24 -13 -115z"/>
<path d="M21573 11868 c0 -7 -3 -63 -8 -124 l-7 -111 64 -7 c34 -3 160 -13
278 -21 303 -22 280 -16 280 -74 0 -27 -6 -53 -13 -59 -7 -6 -66 -35 -132 -65
-66 -30 -147 -67 -180 -82 -33 -15 -118 -55 -190 -87 -71 -33 -133 -63 -137
-66 -3 -4 -9 -34 -11 -67 -16 -172 -19 -225 -14 -225 4 0 109 49 457 212 117
56 211 98 216 98 2 0 4 -8 4 -17 0 -10 13 -47 30 -81 82 -173 280 -271 525
-260 217 11 383 127 443 311 22 68 27 115 58 528 l6 87 -93 6 c-52 4 -114 9
-139 11 -25 3 -110 9 -190 15 -80 6 -170 12 -200 15 -30 3 -147 12 -260 20
-113 9 -320 24 -460 35 -302 24 -327 24 -327 8z m1107 -323 c30 -2 96 -7 145
-10 132 -9 125 -5 119 -83 -16 -203 -35 -266 -93 -315 -46 -38 -94 -50 -180
-45 -125 7 -197 63 -221 171 -9 41 -6 192 5 262 2 11 4 24 4 29 1 4 38 5 84 2
45 -4 107 -9 137 -11z"/>
<path d="M2905 11036 c-117 -21 -120 -22 -117 -46 2 -14 25 -149 53 -301 27
-153 49 -286 49 -296 0 -18 -22 -24 -211 -58 -151 -26 -213 -34 -218 -26 -4 6
-29 134 -55 284 -27 149 -50 274 -52 276 -2 2 -62 -7 -134 -20 -117 -21 -130
-26 -130 -44 1 -11 22 -139 49 -285 42 -235 46 -266 32 -272 -16 -7 -345 -68
-368 -68 -7 0 -15 15 -18 33 -3 17 -25 144 -50 280 -25 137 -45 256 -45 265
-1 44 -11 46 -146 21 -71 -12 -130 -23 -132 -24 -1 -1 20 -130 48 -286 28
-156 63 -349 77 -429 14 -80 28 -149 33 -153 4 -5 146 17 316 47 170 31 512
92 759 137 248 44 474 85 504 89 29 5 56 11 58 14 2 2 -12 96 -32 207 -20 112
-55 310 -78 439 -32 179 -46 235 -57 236 -8 1 -69 -8 -135 -20z"/>
<path d="M21452 10638 c-12 -57 -25 -112 -28 -124 -5 -20 11 -24 355 -100 199
-43 361 -82 361 -85 0 -3 -51 -29 -112 -57 -62 -28 -221 -101 -353 -162 -132
-62 -271 -127 -310 -144 l-70 -33 -34 -157 c-18 -86 -31 -159 -29 -162 3 -2
220 95 484 217 l479 221 45 -50 c219 -245 626 -680 631 -674 4 4 21 72 38 151
l31 143 -54 62 c-30 33 -167 183 -304 331 -137 149 -248 271 -247 273 1 1 157
-31 346 -73 189 -42 350 -77 358 -78 11 -1 22 30 41 118 24 108 25 121 11 127
-9 5 -324 76 -701 158 -377 83 -735 162 -796 175 -61 14 -113 25 -116 25 -3 0
-14 -46 -26 -102z"/>
<path d="M9119 18906 c-30 -19 -196 -120 -369 -226 -987 -604 -1379 -858
-1462 -948 -97 -106 -144 -231 -155 -412 l-6 -106 -191 1 c-169 0 -200 -3
-269 -23 -101 -29 -168 -63 -224 -115 -47 -43 -271 -373 -648 -952 -395 -607
-495 -766 -495 -786 0 -11 15 -50 34 -87 18 -37 239 -600 491 -1252 252 -652
459 -1187 461 -1189 2 -2 1498 1447 2249 2180 l80 78 130 17 129 18 206 189
205 190 29 78 28 79 367 323 c201 178 733 647 1181 1042 448 395 815 722 815
727 0 5 -243 123 -540 264 -297 140 -610 288 -695 329 -85 40 -189 89 -230
108 -41 19 -176 83 -300 142 -124 59 -295 140 -380 180 -249 117 -354 166
-371 176 -11 6 -32 -2 -70 -25z m298 -320 c158 -95 506 -305 773 -466 267
-161 556 -336 643 -388 86 -52 157 -98 157 -103 0 -4 -35 -15 -77 -25 -75 -18
-83 -23 -307 -193 -935 -707 -1555 -1234 -1655 -1403 -71 -122 -111 -265 -108
-384 1 -30 0 -54 -3 -54 -3 0 -360 358 -793 795 l-789 795 0 103 c1 157 36
278 110 375 31 41 138 116 442 309 306 195 1307 813 1317 813 1 0 132 -78 290
-174z m1883 -1045 c0 -4 -141 -131 -312 -282 -172 -152 -638 -562 -1035 -912
l-721 -636 -27 -78 c-25 -72 -33 -84 -106 -152 -52 -49 -83 -71 -89 -65 -22
22 -42 158 -37 249 9 155 61 267 184 396 189 197 812 709 1518 1244 l210 160
155 42 c100 27 174 42 208 41 28 -1 52 -4 52 -7z m-4200 -461 l64 -9 519 -518
c500 -500 1054 -1064 1031 -1050 -29 17 -192 18 -284 2 -149 -26 -259 -75
-389 -173 -100 -76 -518 -519 -1237 -1314 l-269 -298 -54 -155 c-30 -85 -57
-155 -61 -155 -3 0 -170 339 -370 753 -200 413 -414 856 -476 983 l-112 232
157 243 c479 744 843 1292 895 1347 101 109 319 150 586 112z m1635 -1709 c44
-11 102 -29 128 -40 l49 -21 -48 -43 -47 -43 -131 -18 -131 -17 -125 -123
c-796 -782 -1940 -1884 -1940 -1868 0 22 148 440 164 463 16 24 749 829 991
1089 415 446 471 498 614 570 140 70 317 89 476 51z"/>
<path d="M14520 19665 c-16 -19 8 -106 91 -321 73 -193 112 -269 190 -374 135
-184 207 -246 513 -439 154 -97 94 -88 -102 15 -70 37 -183 102 -251 146 -68
43 -131 77 -140 76 -25 -5 -39 -45 -49 -141 -8 -75 -7 -99 8 -160 41 -160 109
-311 149 -331 46 -23 117 -36 233 -41 62 -3 129 -10 148 -17 42 -13 79 -39 80
-54 0 -26 -195 -32 -300 -9 -124 27 -134 18 -96 -92 41 -120 83 -199 127 -237
73 -62 102 -71 219 -69 111 2 111 1 -20 -37 -57 -17 -83 -30 -107 -58 -52 -56
-52 -86 -4 -219 52 -142 118 -282 135 -289 8 -3 49 2 92 11 77 16 124 14 124
-5 0 -5 -21 -15 -46 -21 -26 -7 -60 -26 -80 -44 -43 -41 -44 -78 -8 -190 27
-81 52 -120 85 -130 14 -5 16 -13 12 -40 -3 -19 0 -56 7 -82 17 -63 84 -197
111 -222 35 -32 115 -37 214 -12 46 11 86 21 89 21 3 0 -6 -30 -18 -67 l-23
-68 -169 -61 c-93 -33 -248 -92 -344 -131 -96 -39 -251 -97 -345 -129 -142
-48 -176 -64 -207 -94 -60 -59 -73 -157 -28 -212 18 -23 18 -23 -3 -46 -40
-43 -24 -114 44 -185 36 -37 36 -47 3 -86 -20 -24 -25 -39 -21 -64 3 -22 -2
-40 -16 -59 -15 -20 -20 -42 -20 -86 1 -69 16 -102 71 -156 l41 -39 -21 -28
c-15 -19 -19 -35 -14 -54 16 -63 260 -276 334 -291 25 -5 32 -2 44 20 l14 26
59 -40 c84 -56 121 -65 190 -45 30 9 61 25 69 36 11 16 21 19 47 14 28 -5 39
-1 62 20 l27 26 53 -30 c28 -16 74 -35 100 -42 45 -11 50 -10 83 14 33 23 37
24 65 10 33 -17 99 -11 155 12 59 25 77 64 148 335 78 294 221 780 233 790 4
4 37 17 73 29 36 13 82 34 103 48 l39 25 -6 -29 c-19 -94 -37 -254 -32 -291 9
-67 20 -78 108 -113 69 -27 98 -33 170 -35 80 -2 89 -4 110 -28 18 -21 40 -30
101 -41 122 -23 148 -21 186 19 19 20 37 52 45 82 26 104 56 45 37 -75 -6 -41
-8 -78 -4 -82 13 -11 190 -65 296 -89 81 -19 105 -21 136 -12 69 21 102 77
132 227 15 75 26 52 22 -48 -4 -127 58 -214 184 -258 79 -27 197 -51 217 -43
20 8 20 15 -4 99 -15 51 -21 100 -21 177 0 59 2 112 6 118 4 6 15 4 30 -6 31
-20 65 -110 65 -172 0 -74 19 -171 43 -220 19 -40 28 -48 77 -64 169 -58 299
-75 396 -53 185 42 183 39 72 182 -150 194 -275 403 -242 403 11 0 81 -84 141
-167 30 -43 74 -98 95 -123 96 -108 297 -240 452 -295 109 -39 379 -103 471
-112 62 -6 65 -5 65 16 0 17 -34 44 -157 125 -87 57 -204 126 -260 154 -199
100 -471 338 -584 512 -80 122 -149 294 -199 497 -8 31 -22 51 -53 76 -85 69
-181 113 -615 282 -193 74 -473 208 -547 261 -33 23 -84 67 -113 97 l-53 54
89 109 c49 60 121 147 161 194 79 92 110 145 135 229 20 69 20 113 0 182 -13
45 -29 67 -89 127 -123 121 -255 169 -378 137 -34 -9 -75 -12 -105 -8 -28 3
-59 2 -69 -1 -10 -4 -52 -8 -93 -9 -52 -1 -87 -8 -115 -22 -64 -32 -58 -50 38
-138 l84 -77 2 -70 c2 -98 -14 -131 -90 -180 l-61 -39 -89 74 c-48 42 -104 97
-124 123 -85 110 -229 347 -388 637 -165 303 -226 401 -296 478 -42 47 -71 62
-136 72 -120 17 -362 87 -445 130 -254 128 -525 368 -689 610 -90 131 -316
405 -335 405 -7 0 -19 -7 -26 -15z m156 -192 c53 -65 128 -165 167 -223 52
-78 113 -147 231 -265 180 -179 243 -230 389 -311 145 -82 357 -153 546 -183
73 -12 89 -24 161 -121 58 -79 121 -185 230 -390 115 -217 153 -282 269 -465
117 -184 164 -241 262 -322 l70 -58 -38 -13 c-21 -7 -98 -29 -171 -47 -166
-43 -178 -49 -332 -154 -238 -162 -326 -256 -426 -455 l-58 -113 -91 -22
c-102 -25 -188 -29 -210 -11 -25 21 -86 141 -101 202 -13 48 -13 66 -4 89 15
35 7 59 -19 59 -36 0 -61 34 -86 119 -14 47 -25 90 -25 96 0 23 51 63 94 74
41 10 86 48 86 72 0 5 -15 19 -32 30 -28 17 -44 19 -98 15 -36 -3 -78 -8 -95
-11 -26 -6 -32 -2 -48 24 -36 61 -127 304 -127 338 0 63 43 97 155 124 108 26
137 48 115 88 -9 17 -24 20 -138 23 -124 3 -131 4 -171 32 -23 16 -51 42 -63
58 -22 32 -101 218 -94 225 2 2 40 -3 85 -11 46 -9 106 -13 139 -11 138 13
163 17 184 35 19 15 21 21 11 43 -31 66 -137 104 -313 110 -165 6 -185 17
-231 115 -64 134 -84 214 -82 322 2 152 -1 150 123 72 236 -148 466 -258 500
-237 5 3 10 20 10 37 0 41 -42 78 -178 158 -145 86 -195 122 -276 199 -85 82
-206 242 -253 335 -58 114 -183 446 -168 446 2 0 47 -53 101 -117z m2674
-1820 c-1 -5 -16 -26 -35 -47 l-35 -39 0 34 c0 19 5 40 12 47 13 13 58 17 58
5z m321 -25 c68 -34 173 -128 198 -177 58 -115 21 -247 -112 -401 -155 -180
-348 -428 -381 -490 -19 -36 -46 -100 -62 -144 -94 -266 -269 -492 -505 -649
-141 -94 -211 -123 -353 -148 -160 -28 -175 -25 -111 21 41 30 43 39 11 69
-28 26 -30 25 -99 -32 -26 -22 -49 -38 -52 -35 -3 3 6 31 20 63 14 31 24 62
23 67 -2 6 -18 16 -36 24 -36 15 -30 22 -79 -98 -13 -34 -17 -36 -41 -27 -38
14 -67 40 -86 77 l-16 32 37 16 c21 8 55 22 76 31 42 17 43 22 22 63 l-15 30
-52 -21 c-28 -11 -59 -24 -69 -29 -34 -19 -30 -10 26 58 l56 67 -32 26 -32 26
-36 -40 -37 -39 1 78 c2 107 23 172 116 356 125 246 179 307 435 483 107 74
154 100 216 120 43 14 85 25 92 25 29 0 252 74 295 97 125 69 151 106 151 216
0 88 2 94 77 195 71 96 125 124 228 120 51 -2 85 -10 126 -30z m-445 4 c6 -4
14 -16 17 -27 17 -62 16 -73 -4 -99 l-21 -26 -64 59 c-36 33 -66 63 -67 67 -5
19 116 42 139 26z m344 -998 c25 -25 72 -66 106 -90 75 -53 349 -187 539 -261
358 -140 425 -168 500 -205 79 -40 164 -100 170 -122 1 -6 15 -58 30 -116 39
-144 110 -309 180 -416 115 -174 386 -410 600 -520 99 -52 365 -217 365 -227
0 -8 -149 23 -308 63 -167 42 -280 91 -413 179 -101 67 -181 145 -269 266
-104 143 -146 185 -187 185 -39 0 -41 -9 -15 -78 30 -78 209 -347 290 -435 16
-16 22 -31 16 -36 -15 -14 -148 -41 -203 -41 -62 0 -186 24 -269 51 -49 16
-66 27 -78 52 -19 36 -43 163 -44 227 0 67 -29 137 -73 177 -21 19 -46 33 -55
31 -43 -8 -55 -193 -22 -323 11 -43 18 -81 15 -83 -10 -10 -217 48 -246 69
-16 11 -41 37 -56 56 -25 33 -28 46 -33 150 -6 120 -15 142 -52 122 -24 -13
-34 -35 -43 -89 -19 -125 -66 -190 -138 -190 -45 0 -250 49 -317 76 l-40 16 6
57 c3 31 7 66 10 79 5 24 -15 71 -39 90 -22 19 -65 -20 -73 -66 -9 -51 -41
-101 -69 -108 -13 -3 -61 1 -106 10 -83 15 -119 37 -119 71 0 20 -24 24 -51 9
-32 -18 -72 -17 -143 1 -90 24 -155 55 -162 78 -14 44 -2 184 28 322 9 46 15
53 72 92 199 136 376 367 467 610 23 59 50 126 61 148 30 61 101 165 113 165
6 0 31 -21 55 -46z m-1680 -625 l0 -101 -50 -58 c-56 -65 -62 -92 -25 -116 24
-16 28 -15 78 5 48 20 53 21 62 5 36 -60 55 -81 97 -102 l46 -24 -19 -45 c-24
-57 -24 -90 0 -103 33 -17 44 -12 114 45 66 55 68 56 117 49 27 -4 78 -1 115
6 36 7 68 10 71 8 2 -3 -25 -104 -61 -224 -36 -120 -99 -347 -142 -504 -42
-157 -85 -297 -95 -312 -22 -32 -77 -51 -133 -46 l-40 3 1 105 c1 126 41 338
84 450 56 145 110 305 110 328 0 38 -36 27 -67 -20 -124 -195 -224 -570 -210
-784 4 -54 2 -85 -6 -93 -20 -20 -64 -11 -141 29 -41 22 -78 40 -80 40 -3 0
-21 -14 -40 -30 -19 -17 -37 -27 -39 -23 -7 11 27 192 47 259 25 82 80 194
161 332 41 71 75 134 75 140 0 53 -137 -74 -208 -193 -93 -156 -134 -284 -147
-460 -4 -49 -11 -97 -16 -106 -8 -15 -57 -29 -107 -29 -31 0 -145 78 -136 93
4 7 20 30 35 53 15 22 49 78 76 125 27 46 74 127 105 179 100 172 118 211 107
232 -5 10 -20 18 -32 18 -17 0 -38 -25 -96 -118 -98 -155 -259 -447 -272 -494
-5 -21 -14 -38 -20 -38 -29 0 -238 172 -279 230 -21 29 -21 30 -1 46 10 9 50
34 88 54 156 83 523 339 523 364 0 8 -7 19 -15 26 -13 11 -22 10 -51 -3 -71
-34 -297 -181 -371 -240 -117 -95 -146 -117 -154 -117 -15 0 -80 63 -95 91
-20 39 -18 112 4 139 10 12 30 24 45 25 37 4 236 71 327 110 94 40 162 84 270
174 47 39 88 71 92 71 14 0 19 41 8 55 -20 24 -36 18 -117 -42 -42 -31 -116
-80 -165 -108 -100 -59 -435 -212 -444 -202 -4 3 5 20 20 37 34 41 35 92 3
124 -46 46 -67 79 -67 107 0 15 4 31 10 34 5 3 58 15 117 26 196 37 343 79
467 133 66 30 150 66 186 80 98 40 173 124 126 142 -16 6 -59 -11 -296 -119
-208 -94 -561 -200 -586 -176 -38 39 -31 126 14 171 10 11 118 54 238 97 120
43 260 95 309 116 113 48 446 173 463 174 9 1 12 -26 12 -100z"/>
<path d="M15960 18360 c-25 -25 -15 -49 32 -79 18 -11 54 -41 79 -68 134 -138
192 -310 230 -677 17 -165 61 -236 228 -366 103 -79 145 -97 157 -65 13 32 -8
62 -77 114 -71 55 -163 154 -172 188 -14 47 -28 138 -37 241 -13 144 -31 225
-77 358 -41 120 -100 210 -194 293 -86 76 -136 94 -169 61z"/>
<path d="M17468 17614 c-81 -43 -74 -170 10 -210 102 -48 205 58 157 160 -29
61 -105 84 -167 50z m24 -91 c13 -16 50 -17 66 -1 7 7 12 22 12 35 0 34 19 28
36 -12 31 -76 -36 -142 -112 -110 -52 22 -68 89 -31 134 10 12 13 10 15 -10 2
-13 9 -30 14 -36z"/>
<path d="M17484 16365 c-12 -31 7 -62 93 -151 63 -64 105 -99 148 -119 60 -29
61 -30 300 -36 273 -7 364 -21 482 -75 54 -25 95 -53 143 -99 69 -67 89 -76
110 -50 24 29 -4 87 -70 149 -87 80 -169 122 -296 152 -100 24 -130 27 -349
29 -139 1 -251 6 -265 12 -37 16 -138 95 -195 152 -50 52 -90 66 -101 36z"/>
<path d="M6101 11814 c-7 -43 -16 -151 -21 -239 -5 -88 -14 -194 -19 -235 -6
-41 -11 -113 -11 -160 0 -77 5 -101 49 -230 27 -80 67 -183 89 -230 22 -47 54
-116 71 -153 l30 -68 -136 130 c-139 135 -150 141 -211 125 -23 -6 -23 -9 -20
-108 4 -97 6 -106 56 -216 l52 -115 0 -205 c0 -197 1 -207 27 -275 39 -106
210 -348 335 -476 l103 -106 19 -89 c23 -113 34 -138 85 -196 42 -47 46 -49
176 -78 22 -5 58 -9 81 -10 l41 0 145 -217 c161 -242 301 -463 296 -468 -1 -2
-282 -132 -623 -289 l-620 -286 -69 -123 c-58 -102 -83 -163 -152 -369 -45
-136 -79 -249 -76 -251 4 -2 27 -5 52 -6 25 0 119 -6 210 -11 91 -6 206 -12
255 -15 50 -3 131 -8 180 -11 l90 -5 570 380 c313 209 570 379 571 378 1 -1
73 -117 161 -257 88 -140 249 -390 358 -555 109 -165 281 -428 383 -585 202
-313 271 -404 335 -448 121 -84 190 -95 289 -50 74 34 88 57 98 169 18 187
-15 340 -158 749 -87 250 -502 1586 -502 1617 0 11 399 275 409 271 19 -7 131
-149 131 -165 0 -13 -8 -8 -30 18 -37 46 -78 63 -132 56 -60 -8 -85 -43 -93
-132 -7 -77 2 -119 36 -166 34 -48 89 -67 197 -68 106 -1 140 10 208 65 61 50
86 102 92 191 5 86 -7 129 -72 239 l-46 79 42 7 c225 39 450 220 504 405 15
52 16 53 53 53 79 0 142 72 143 162 1 101 -74 215 -167 254 -87 36 -175 7
-214 -72 l-25 -49 -100 -1 c-83 0 -114 -5 -174 -26 -103 -37 -205 -100 -277
-173 l-63 -62 -21 37 c-26 47 -26 50 -1 50 24 0 76 25 103 48 13 11 17 31 17
78 0 71 -20 116 -60 135 -30 14 -158 24 -194 15 -40 -10 -163 -132 -187 -185
-24 -53 -25 -95 -4 -222 11 -69 21 -99 45 -135 18 -25 30 -46 28 -48 -15 -11
-297 -136 -305 -136 -6 0 -16 15 -22 33 -5 17 -46 148 -91 290 -44 142 -90
301 -100 354 l-20 95 26 31 c26 31 26 32 19 147 -10 169 -53 258 -154 321 -52
33 -151 127 -151 143 0 6 -6 52 -14 102 -11 73 -23 108 -60 180 -52 99 -101
146 -321 309 l-115 85 -89 177 -88 178 -31 -61 c-17 -34 -40 -98 -52 -143 -23
-93 -40 -133 -52 -129 -5 2 -39 68 -76 148 -95 205 -197 362 -274 420 -106 80
-94 77 -122 31 l-26 -40 17 -70 c16 -67 16 -72 -8 -195 -13 -69 -26 -126 -29
-126 -3 0 -21 25 -40 54 -19 30 -73 89 -120 132 -107 99 -195 236 -235 369
-28 92 -82 186 -155 267 l-36 41 -13 -79z m469 -998 c0 -30 13 -86 32 -141 32
-91 33 -92 77 -108 25 -9 46 -15 47 -14 1 1 6 49 11 107 l8 105 40 0 c39 0 40
1 45 40 5 36 58 146 70 144 3 0 38 -39 79 -87 40 -48 117 -134 170 -192 113
-122 141 -178 140 -274 0 -33 -4 -70 -9 -81 -7 -17 -11 -12 -31 35 -34 79 -59
122 -104 179 -35 43 -45 50 -77 50 -42 1 -47 -7 -38 -66 5 -29 3 -43 -4 -43
-7 0 -44 16 -84 35 -46 22 -72 30 -73 22 -1 -7 -1 -66 0 -132 2 -96 -2 -133
-18 -185 -15 -45 -21 -93 -21 -156 l0 -90 85 -73 c66 -56 89 -70 99 -62 21 18
39 124 32 188 -14 123 -19 283 -8 283 13 0 117 -113 147 -160 27 -43 114 -99
193 -125 28 -9 52 -20 52 -23 0 -4 -23 -19 -50 -34 -39 -22 -63 -28 -110 -28
l-60 0 0 -48 c0 -65 -39 -119 -119 -166 -55 -32 -68 -35 -143 -37 -46 -1 -104
2 -130 6 l-47 7 -108 -106 c-59 -58 -116 -106 -126 -106 -34 0 -75 39 -93 88
-10 26 -25 58 -35 72 -9 14 -56 100 -103 191 l-86 166 0 136 c0 76 3 137 8
137 16 -1 153 -231 198 -333 42 -96 54 -113 105 -156 52 -44 63 -49 123 -55
84 -8 113 6 150 73 l28 52 -99 102 c-171 176 -193 218 -240 447 -18 89 -43
167 -85 270 -79 190 -208 517 -219 555 -7 23 37 -16 186 -165 l195 -195 0 -49z
m1123 -381 c110 -109 149 -172 145 -233 l-3 -47 -60 -3 c-44 -2 -66 -9 -82
-24 -13 -12 -45 -24 -73 -29 -33 -5 -64 -19 -89 -38 -22 -17 -41 -31 -44 -31
-3 0 -18 38 -33 85 l-28 85 21 21 c19 19 19 24 8 82 -7 34 -16 118 -20 186
l-7 124 92 -49 c70 -37 112 -69 173 -129z m186 -631 c34 -43 24 -144 -14 -144
-37 0 -61 102 -35 151 14 26 25 24 49 -7z m-225 -96 c20 -29 21 -108 1 -134
-15 -19 -16 -18 -40 9 -18 20 -25 40 -25 68 0 73 33 102 64 57z m-254 -154
c16 -42 12 -100 -9 -125 -18 -22 -21 -23 -36 -8 -10 10 -20 38 -22 63 -9 75
44 131 67 70z m-279 -136 c27 -50 5 -148 -32 -148 -19 0 -41 64 -36 102 9 66
45 89 68 46z m2878 -64 c35 -45 24 -92 -28 -113 -48 -21 -101 15 -101 68 0 34
39 71 75 71 24 0 39 -7 54 -26z m-3133 -66 c29 -55 1 -151 -40 -135 -19 8 -37
73 -29 106 6 28 31 61 44 61 5 0 16 -14 25 -32z m775 -183 c140 -9 256 -19
260 -23 4 -4 21 -52 39 -107 18 -55 44 -127 57 -160 14 -33 43 -108 64 -166
l38 -107 -262 -121 c-144 -67 -266 -121 -272 -121 -13 1 -449 714 -439 717 5
2 43 26 84 53 89 59 63 57 431 35z m2004 -11 c34 -34 -10 -109 -97 -166 -57
-38 -136 -68 -178 -68 -33 0 -70 26 -70 49 0 25 51 93 94 126 83 63 215 94
251 59z m-890 -513 c-11 -10 -510 -382 -1108 -825 l-1088 -806 -320 0 c-301 0
-320 1 -315 18 3 9 54 138 113 285 l108 269 1305 539 c718 296 1309 538 1315
539 5 0 1 -9 -10 -19z m-450 -628 c41 -105 428 -1192 516 -1451 38 -112 76
-217 85 -234 27 -52 11 -48 -60 14 -52 47 -98 106 -195 252 -131 197 -731
1168 -731 1183 1 8 358 251 371 252 4 1 10 -7 14 -16z"/>
<path d="M6781 7546 l-444 -201 -28 -78 -28 -77 66 0 66 0 401 252 c221 138
407 257 415 264 8 7 10 17 5 27 -7 12 -90 -23 -453 -187z"/>
<path d="M17228 10700 c-257 -57 -471 -171 -638 -339 -94 -95 -160 -198 -215
-335 -32 -79 -86 -268 -99 -348 l-7 -37 -87 63 c-334 241 -642 358 -822 312
-180 -46 -258 -205 -201 -411 49 -175 156 -351 353 -582 l88 -102 -43 -11
c-244 -63 -472 -183 -605 -318 -197 -200 -366 -537 -407 -811 -27 -174 -17
-319 30 -454 48 -135 138 -262 309 -432 261 -261 408 -332 864 -419 211 -41
525 -85 712 -101 41 -4 80 -8 86 -10 7 -2 -3 -32 -25 -76 -33 -67 -36 -80 -36
-158 0 -72 5 -96 27 -143 95 -205 354 -281 531 -154 25 17 561 589 1191 1271
941 1018 1152 1251 1176 1300 151 306 -183 629 -491 474 l-35 -17 -13 101
c-18 149 -57 365 -90 502 -124 500 -291 812 -526 980 -120 86 -371 194 -560
241 -141 36 -344 42 -467 14z m540 -205 c198 -66 416 -198 533 -323 156 -167
216 -335 403 -1133 31 -130 57 -250 58 -266 3 -26 -21 -55 -187 -234 l-190
-206 -7 81 c-43 459 -117 785 -237 1042 -146 312 -415 545 -708 615 -74 18
-109 20 -223 16 -116 -4 -148 -9 -230 -35 -98 -33 -231 -96 -278 -133 l-27
-21 -6 24 c-16 53 -9 167 12 224 32 86 155 210 256 259 156 76 305 113 493
124 145 8 241 -2 338 -34z m-2168 -682 c30 -8 105 -39 165 -69 118 -59 370
-223 370 -241 0 -6 -90 -109 -200 -228 l-200 -217 -68 73 c-173 184 -322 425
-334 540 -4 39 -1 64 10 85 42 81 111 97 257 57z m1080 -118 c63 -14 121 -28
128 -30 17 -6 5 -22 -106 -141 l-82 -87 -145 33 c-80 18 -144 37 -143 42 2 4
47 55 102 113 67 73 103 104 115 101 9 -3 68 -17 131 -31z m-332 -474 c172
-68 350 -186 580 -385 159 -137 313 -318 609 -717 184 -248 273 -374 273 -386
0 -4 -44 -55 -98 -112 l-97 -103 -245 147 c-289 174 -637 402 -770 505 -264
205 -521 506 -600 703 -72 179 -19 335 126 372 56 14 151 4 222 -24z m-567
-505 l45 -143 -99 -109 c-55 -60 -103 -108 -106 -107 -3 1 -26 65 -50 142
l-44 140 89 96 c49 53 93 103 99 111 5 8 12 14 16 14 3 0 25 -65 50 -144z
m3363 -87 c55 -43 23 -139 -47 -139 -41 0 -63 15 -76 50 -12 37 -1 72 31 94
30 22 60 20 92 -5z m-3771 -115 c11 -4 8 -17 -19 -67 -120 -226 -145 -502 -66
-727 72 -206 236 -401 447 -531 262 -162 740 -262 1221 -256 l132 2 -25 -30
c-14 -16 -101 -112 -193 -211 -140 -150 -172 -181 -192 -178 -13 2 -142 22
-288 45 -600 91 -824 138 -975 204 -82 37 -181 104 -237 162 -135 140 -286
395 -330 558 -28 103 -30 360 -5 501 32 176 86 298 176 396 67 73 110 104 174
124 43 13 154 18 180 8z m3551 -125 c52 -41 21 -139 -45 -139 -41 0 -58 9 -74
41 -21 40 -19 57 14 90 35 34 68 37 105 8z m-219 -244 c63 -62 -6 -161 -90
-129 -8 4 -23 20 -31 36 -42 81 58 157 121 93z m-220 -240 c50 -49 15 -135
-55 -135 -39 0 -80 42 -80 82 0 39 40 78 80 78 19 0 40 -9 55 -25z m-220 -240
c49 -48 15 -135 -53 -135 -40 0 -82 41 -82 80 0 41 39 80 80 80 19 0 40 -9 55
-25z m-220 -240 c61 -60 -6 -158 -85 -125 -17 7 -35 21 -40 31 -28 52 12 119
70 119 19 0 40 -9 55 -25z m-220 -240 c14 -13 25 -36 25 -50 0 -30 -49 -85
-75 -85 -24 0 -72 27 -79 45 -33 86 65 154 129 90z m-201 -273 c7 -24 5 -37
-8 -57 -37 -56 -108 -54 -138 5 -23 46 -6 90 43 107 45 15 89 -9 103 -55z
m-226 -223 c27 -52 -10 -109 -70 -109 -46 0 -78 28 -78 69 0 45 10 62 44 76
39 16 85 0 104 -36z m-235 -221 c23 -28 22 -83 -3 -108 -40 -40 -128 -15 -131
38 -1 9 0 26 1 37 6 61 91 82 133 33z m-220 -240 c41 -48 8 -128 -54 -128 -42
0 -64 14 -79 49 -32 79 77 145 133 79z"/>
<path d="M17418 10358 c-24 -20 -28 -44 -12 -67 17 -23 53 -28 72 -9 19 19 15
66 -7 78 -25 13 -34 13 -53 -2z"/>
<path d="M17942 10108 c-35 -35 14 -102 57 -79 45 25 33 91 -17 91 -16 0 -33
-5 -40 -12z"/>
<path d="M18318 9689 c-21 -12 -24 -59 -6 -77 7 -7 21 -12 33 -12 12 0 26 5
33 12 19 19 15 66 -7 78 -24 12 -31 12 -53 -1z"/>
<path d="M18534 9130 c-27 -11 -36 -34 -24 -65 18 -48 96 -26 88 26 -4 29 -37
49 -64 39z"/>
<path d="M16186 9035 c-21 -22 -20 -48 2 -68 25 -22 45 -21 67 3 41 46 -26
108 -69 65z"/>
<path d="M16606 8655 c-32 -32 -14 -85 29 -85 31 0 48 15 48 45 0 44 -48 68
-77 40z"/>
<path d="M16996 8284 c-19 -18 -21 -55 -4 -72 27 -27 88 -3 88 34 0 18 -36 54
-54 54 -8 0 -22 -7 -30 -16z"/>
<path d="M17403 7930 c-26 -10 -32 -57 -11 -78 19 -19 55 -14 72 10 20 29 20
34 -4 58 -22 22 -25 23 -57 10z"/>
<path d="M15020 7770 c-24 -24 -24 -29 -4 -58 17 -24 53 -29 72 -10 19 19 15
66 -7 78 -28 14 -38 13 -61 -10z"/>
<path d="M15302 7258 c-20 -20 -14 -56 13 -74 23 -15 27 -15 50 0 27 18 31 36
15 67 -12 22 -59 26 -78 7z"/>
<path d="M15763 6928 c-21 -28 -22 -49 -3 -68 23 -23 33 -24 61 -10 22 12 26
59 7 78 -16 16 -53 15 -65 0z"/>
<path d="M16335 6760 c-15 -16 -17 -26 -9 -48 8 -22 15 -27 44 -27 29 0 36 5
44 27 8 22 6 32 -9 48 -10 11 -26 20 -35 20 -9 0 -25 -9 -35 -20z"/>
<path d="M2708 8781 c-54 -18 -97 -52 -117 -95 -27 -55 -27 -105 2 -146 36
-54 76 -71 185 -80 109 -9 128 -15 142 -41 17 -31 11 -56 -20 -83 -45 -38 -93
-43 -153 -17 -28 11 -51 20 -52 18 -1 -1 -12 -17 -24 -35 -22 -32 -23 -34 -5
-47 63 -48 175 -52 254 -9 91 49 122 123 86 208 -23 54 -66 77 -164 88 -143
15 -151 17 -168 43 -47 72 67 146 154 101 27 -14 28 -13 50 25 l22 38 -31 17
c-37 19 -123 27 -161 15z"/>
<path d="M21731 8580 c-100 -121 -184 -227 -187 -234 -3 -8 10 -17 37 -25 22
-7 42 -11 43 -9 1 2 21 26 44 55 l43 51 112 -37 112 -38 10 -73 c10 -72 10
-73 48 -86 l37 -13 0 42 c0 69 -21 520 -26 543 -2 14 -14 23 -31 27 -16 3 -35
8 -44 12 -11 4 -64 -53 -198 -215z m201 -22 c2 -62 3 -115 1 -117 -6 -8 -155
43 -155 52 0 10 135 176 143 176 4 1 9 -50 11 -111z"/>
<path d="M4103 6671 c-67 -23 -118 -62 -154 -120 -93 -146 -69 -338 89 -691
75 -169 96 -237 89 -303 -4 -42 -10 -56 -41 -84 -29 -27 -44 -33 -79 -33 -136
0 -323 196 -372 389 -9 33 -17 107 -18 163 l-2 102 -133 42 c-88 28 -134 38
-139 31 -13 -21 -5 -232 11 -299 23 -100 71 -217 117 -289 171 -265 411 -437
615 -440 88 -2 154 23 219 82 159 146 153 317 -25 724 -104 238 -124 333 -81
393 106 149 385 -38 445 -299 9 -35 16 -92 17 -126 l2 -62 129 -30 c72 -17
135 -31 140 -31 19 0 2 178 -26 273 -51 173 -136 309 -275 439 -166 155 -374
222 -528 169z"/>
<path d="M19799 6278 c-190 -216 -360 -409 -377 -430 l-32 -36 535 -471 c294
-259 541 -474 549 -477 9 -4 137 134 377 407 200 227 371 422 380 434 16 19
13 23 -73 99 l-89 79 -27 -32 c-134 -157 -519 -590 -524 -590 -10 -1 -283 241
-283 250 0 5 109 132 243 283 133 151 242 279 241 283 -1 9 -163 153 -172 153
-3 0 -117 -126 -253 -280 -221 -252 -248 -279 -263 -267 -9 8 -65 58 -126 111
-60 53 -110 101 -110 106 0 5 117 142 260 305 143 163 261 300 263 304 2 7
-160 161 -170 161 -2 0 -159 -177 -349 -392z"/>
<path d="M5120 5464 c-138 -26 -254 -88 -355 -189 -139 -138 -203 -307 -192
-509 12 -220 112 -429 299 -622 282 -292 663 -428 973 -349 239 61 428 254
480 491 27 120 17 282 -24 404 -115 337 -437 639 -796 746 -74 22 -114 27
-225 29 -74 2 -146 1 -160 -1z m410 -304 c110 -37 206 -97 303 -189 134 -127
207 -284 208 -446 1 -184 -92 -335 -258 -417 -80 -40 -92 -43 -186 -46 -118
-5 -184 7 -285 54 -301 138 -486 442 -431 706 36 171 188 321 360 358 69 14
215 4 289 -20z"/>
<path d="M19070 5415 c-73 -20 -203 -85 -265 -131 -28 -21 -159 -130 -293
-242 -213 -179 -241 -206 -230 -220 90 -112 912 -1088 919 -1090 13 -5 250
198 243 209 -3 5 -79 97 -170 205 -90 108 -164 199 -164 204 0 15 95 90 114
90 15 0 610 -110 667 -124 9 -2 77 48 162 120 138 115 145 123 119 128 -29 6
-508 91 -607 107 -33 6 -66 12 -72 14 -9 3 0 25 27 66 68 105 84 159 85 279 0
99 -2 110 -32 170 -42 85 -111 155 -193 193 -56 27 -78 32 -160 34 -61 2 -115
-3 -150 -12z m153 -304 c37 -23 72 -79 82 -131 10 -54 -26 -139 -87 -205 -45
-49 -259 -235 -271 -235 -6 0 -261 308 -265 320 -5 13 237 211 298 244 57 31
139 46 183 35 15 -4 42 -17 60 -28z"/>
<path d="M17584 4396 c-312 -191 -479 -299 -478 -309 1 -8 33 -66 71 -129 39
-62 137 -223 220 -358 339 -554 433 -706 446 -724 13 -18 39 -4 493 274 263
161 485 298 492 305 11 10 2 30 -45 108 -39 65 -63 96 -73 93 -8 -2 -170 -98
-359 -214 l-344 -211 -98 160 c-55 88 -99 163 -99 167 0 4 31 25 68 47 235
140 558 342 560 350 3 14 -100 186 -115 192 -6 3 -152 -81 -323 -186 -171
-105 -314 -191 -318 -191 -8 1 -186 290 -181 294 2 2 158 97 346 212 189 115
343 212 343 216 0 10 -114 198 -121 198 -3 0 -221 -132 -485 -294z"/>
<path d="M7560 3932 c-125 -33 -210 -104 -249 -206 -38 -102 -23 -199 50 -322
35 -60 197 -228 373 -389 148 -134 180 -197 141 -279 -23 -49 -65 -68 -143
-67 -220 3 -438 166 -517 386 -10 28 -19 51 -21 53 -3 4 -276 -37 -282 -43 -3
-3 7 -36 22 -75 55 -139 169 -283 299 -379 198 -145 481 -230 670 -201 135 21
225 82 276 190 22 47 26 69 26 145 0 76 -4 99 -26 145 -42 90 -138 198 -314
355 -187 166 -244 233 -252 296 -16 118 112 180 273 131 121 -37 224 -117 294
-228 23 -36 45 -75 50 -88 l8 -23 134 29 c73 16 135 31 137 34 11 10 -60 134
-117 206 -165 207 -433 343 -687 346 -48 1 -106 -6 -145 -16z"/>
<path d="M16680 3884 c-74 -31 -139 -60 -144 -64 -5 -5 2 -36 17 -72 14 -35
64 -156 110 -269 l85 -207 -370 -152 c-203 -83 -371 -150 -373 -148 -1 2 -51
122 -110 268 -60 146 -110 267 -111 269 -2 2 -70 -23 -151 -57 -95 -39 -147
-65 -145 -74 5 -23 534 -1313 543 -1322 6 -7 276 94 298 111 3 2 -21 65 -52
141 -31 75 -83 204 -117 286 -33 82 -60 150 -58 151 13 13 734 302 739 297 3
-4 57 -132 119 -284 63 -153 119 -278 124 -278 29 0 291 119 288 130 -7 32
-545 1330 -551 1330 -3 -1 -67 -26 -141 -56z"/>
<path d="M9150 3578 c-135 -22 -247 -41 -248 -43 -4 -4 94 -162 113 -183 9
-10 37 -8 146 12 74 13 153 27 177 31 l43 7 133 -126 133 -126 107 47 c103 44
106 47 89 64 -10 9 -101 94 -202 188 -159 147 -189 171 -215 170 -17 -1 -141
-19 -276 -41z"/>
<path d="M8767 3333 c-10 -18 -370 -1213 -366 -1217 8 -7 1101 -337 1105 -333
2 2 17 47 33 100 l29 96 -32 10 c-17 6 -195 60 -395 121 -201 61 -366 112
-368 113 -1 2 19 75 46 163 34 111 53 158 62 156 8 -1 169 -49 358 -107 189
-58 347 -103 350 -99 11 11 60 189 53 195 -4 3 -162 52 -352 109 -190 57 -348
106 -352 109 -7 6 69 269 82 284 4 4 177 -44 386 -108 208 -63 384 -115 390
-115 10 0 69 188 61 196 -2 2 -241 76 -530 164 -290 89 -533 163 -541 166 -8
3 -16 2 -19 -3z"/>
<path d="M14470 3128 c-25 -4 -133 -22 -240 -38 -107 -17 -276 -44 -375 -60
-99 -16 -244 -39 -323 -52 l-144 -22 6 -31 c4 -16 20 -115 36 -220 42 -271
114 -719 149 -937 17 -103 31 -195 31 -205 1 -44 8 -45 201 -14 311 51 938
151 944 151 9 0 5 53 -12 147 -16 92 -17 94 -42 88 -33 -6 -781 -125 -791
-125 -4 0 -13 33 -19 73 -6 39 -19 125 -29 190 -11 64 -17 117 -14 117 3 0
358 56 654 104 43 7 80 14 82 17 5 5 -31 220 -39 227 -4 5 -184 -22 -588 -89
-65 -10 -126 -19 -136 -19 -14 0 -21 26 -43 167 -15 92 -25 169 -23 171 3 3
615 103 742 121 29 4 55 10 57 12 5 5 -29 228 -35 233 -2 1 -24 -1 -49 -6z"/>
<path d="M10886 2924 c-3 -33 -8 -102 -11 -154 -14 -232 -22 -359 -30 -450 -2
-30 -7 -98 -10 -150 -3 -52 -8 -122 -10 -155 -5 -67 -12 -166 -20 -300 -3 -49
-8 -111 -11 -136 l-6 -47 114 -6 c62 -4 131 -9 153 -11 173 -17 419 -27 520
-22 409 21 708 232 791 557 24 96 15 272 -18 362 -86 230 -287 400 -569 482
-119 34 -213 46 -469 61 -58 4 -118 8 -135 10 -16 2 -87 7 -156 11 l-127 7 -6
-59z m621 -224 c239 -22 416 -130 500 -306 37 -77 38 -82 38 -190 0 -107 -1
-112 -38 -186 -67 -137 -205 -237 -377 -274 -75 -16 -243 -15 -431 2 -61 6
-67 9 -64 28 2 11 6 62 9 111 4 50 13 185 21 300 7 116 17 264 21 330 4 66 8
127 10 135 1 8 3 28 3 44 l1 28 103 -6 c56 -4 148 -11 204 -16z"/>
<path d="M12846 2928 c-83 -5 -152 -10 -153 -12 -2 -2 3 -131 12 -287 8 -156
20 -372 25 -479 6 -107 12 -222 15 -255 2 -33 7 -132 10 -220 3 -88 8 -171 11
-184 l5 -24 117 6 c64 4 137 7 161 7 l44 0 -7 148 c-4 81 -9 174 -11 207 -2
33 -7 112 -10 175 -3 63 -14 282 -25 485 -11 204 -20 384 -20 401 0 18 -6 34
-12 36 -7 2 -80 0 -162 -4z"/>
</g>
</svg>
