<svg width="601.7937866210938px" height="178.4px" xmlns="http://www.w3.org/2000/svg" viewBox="-50.896893310546886 -14.200000000000003 601.7937866210938 178.4" style="background: rgba(255, 255, 255, 0);" preserveAspectRatio="xMidYMid"><defs><filter id="editing-extrude-glow"><feFlood flood-color="#a2b4bc" result="flood-1"></feFlood><feMorphology operator="erode" radius="1" in="SourceAlpha" result="erode"></feMorphology><feComposite operator="in" in="flood-1" in2="erode" result="comp1"></feComposite><feConvolveMatrix order="3,3" divisor="1" in="comp1" result="convolve" kernelMatrix="0 0 0 1 1 1 0 0 0"></feConvolveMatrix><feOffset dx="-3" dy="0" in="convolve" result="extrude"></feOffset><feComposite operator="in" in="flood-1" in2="extrude" result="comp-extrude"></feComposite><feFlood flood-color="#7394a4" result="flood-2"></feFlood><feComposite operator="in" in="flood-2" in2="SourceAlpha" result="comp2"></feComposite><feMorphology operator="dilate" radius="1" in="comp2" result="dilate"></feMorphology><feOffset dx="-4.5" dy="0" in="dilate" result="offset"></feOffset><feGaussianBlur in="offset" stdDeviation="5.8" result="blur"></feGaussianBlur><feComponentTransfer in="blur" result="shadow"><feFuncA type="linear" slope="0.8" intercept="-0.2"></feFuncA></feComponentTransfer><feMerge><feMergeNode in="shadow"></feMergeNode><feMergeNode in="comp-extrude"></feMergeNode><feMergeNode in="SourceGraphic"></feMergeNode></feMerge></filter></defs><g filter="url(#editing-extrude-glow)"><g transform="translate(37.14997786283493, 112)"><path d="M44.40-15.40L44.40-15.40L44.40-15.40Q46.30-13 46.30-9.10L46.30-9.10L46.30-9.10Q46.30-3.70 42.30-0.85L42.30-0.85L42.30-0.85Q38.30 2 32 2L32 2L32 2Q28.40 2 22.90 1.20L22.90 1.20L22.90 1.20Q12.10-0.50 8.80-0.50L8.80-0.50L8.80-0.50Q5.50-0.50 4.20-0.35L4.20-0.35L4.20-0.35Q2.90-0.20 0.80 0L0.80 0L13.10-66L56.20-66L56.20-66Q56.20-59.90 53.25-56.70L53.25-56.70L53.25-56.70Q50.30-53.50 44.50-53.50L44.50-53.50L44.50-53.50Q38.70-53.50 32.80-56.20L32.80-56.20L29.70-38.70L47.50-38.70L47.50-38.70Q47.50-33.40 44.90-30.45L44.90-30.45L44.90-30.45Q42.30-27.50 37.95-27.50L37.95-27.50L37.95-27.50Q33.60-27.50 30.90-28.50L30.90-28.50L30.90-28.50Q28.20-29.50 27.90-29.80L27.90-29.80L24.30-10.90L24.30-10.90Q26.70-10.60 31.20-10.60L31.20-10.60L31.20-10.60Q38.90-10.60 44.40-15.40ZM96-32.20L116.20-34L116.20-34Q109-18.20 109 0.10L109 0.10L109 0.10Q106.30 2 102.35 2L102.35 2L102.35 2Q98.40 2 95.90 0.15L95.90 0.15L95.90 0.15Q93.40-1.70 92.90-3.60L92.90-3.60L92.90-3.60Q90.40-1 86.35 0.50L86.35 0.50L86.35 0.50Q82.30 2 78 2L78 2L78 2Q73.70 2 69.95 0.60L69.95 0.60L69.95 0.60Q66.20-0.80 63.30-3.90L63.30-3.90L63.30-3.90Q56.90-10.70 56.90-23.60L56.90-23.60L56.90-23.60Q56.90-43.60 67.60-55.60L67.60-55.60L67.60-55.60Q78.60-68 98.10-68L98.10-68L98.10-68Q111.60-68 116.40-61L116.40-61L116.40-61Q117.90-58.80 117.90-56.15L117.90-56.15L117.90-56.15Q117.90-53.50 116.75-51.25L116.75-51.25L116.75-51.25Q115.60-49 113.80-47.20L113.80-47.20L113.80-47.20Q109.50-43.20 104.20-43.20L104.20-43.20L104.20-43.20Q102.10-43.20 100.10-43.90L100.10-43.90L100.10-43.90Q100.50-46.90 100.50-50.40L100.50-50.40L100.50-50.40Q100.50-53.90 100.25-55.50L100.25-55.50L100.25-55.50Q100-57.10 99.40-58.40L99.40-58.40L99.40-58.40Q98.10-61.10 95.25-61.10L95.25-61.10L95.25-61.10Q92.40-61.10 89.25-58.05L89.25-58.05L89.25-58.05Q86.10-55 83.60-50L83.60-50L83.60-50Q78.10-38.80 78.10-25.30L78.10-25.30L78.10-25.30Q78.10-19.10 80.50-14.70L80.50-14.70L80.50-14.70Q83.10-9.90 87.70-9.90L87.70-9.90L87.70-9.90Q89.30-9.90 90.75-10.70L90.75-10.70L90.75-10.70Q92.20-11.50 92.80-12.10L92.80-12.10L96-32.20ZM162.10 0L140.80 0L152.20-60.80L153.30-66L174.70-66L162.10 0ZM202.70-5.90L202.70-5.90L202.70-5.90Q200 2 189.60 2L189.60 2L189.60 2Q181.90 2 176.60-7.20L176.60-7.20L176.60-7.20Q171.20-16.40 170.20-31.40L170.20-31.40L170.20-31.40Q181.20-51.50 188.80-59.80L188.80-59.80L188.80-59.80Q196.10-67.70 203.70-67.70L203.70-67.70L203.70-67.70Q207.80-67.70 210.75-65.50L210.75-65.50L210.75-65.50Q213.70-63.30 214.40-59.80L214.40-59.80L214.40-59.80Q211-58.40 209.40-57.30L209.40-57.30L209.40-57.30Q205.40-54.30 200-47.60L200-47.60L190.90-36.70L190.90-36.70Q188.70-34.10 187.80-32.90L187.80-32.90L187.80-32.90Q189.30-24.50 193.80-16.20L193.80-16.20L193.80-16.20Q198.10-8.30 202.70-5.90ZM235.10-5.50L235.10-5.50L235.10-5.50Q232 2 222.10 2L222.10 2L222.10 2Q217.10 2 213.90-1.50L213.90-1.50L213.90-1.50Q211.30-4.40 211.30-7.70L211.30-7.70L211.30-7.70Q211.30-15.20 214.80-31.60L214.80-31.60L222.10-70L242.40-72L232.70-21.40L232.70-21.40Q231-14 231-11.40L231-11.40L231-11.40Q231-5.70 235.10-5.50ZM247.95-3L247.95-3L247.95-3Q245.60-5.60 244.55-9.70L244.55-9.70L244.55-9.70Q243.50-13.80 243.50-20.50L243.50-20.50L243.50-20.50Q243.50-27.20 245.80-33.30L245.80-33.30L245.80-33.30Q248.10-39.40 252.30-43.80L252.30-43.80L252.30-43.80Q260.90-53 275.10-53L275.10-53L275.10-53Q280.20-53 283.90-51.30L283.90-51.30L301-53L293.60-14L293.60-14Q293.30-12.80 293.30-10.60L293.30-10.60L293.30-10.60Q293.30-8.40 294.65-7L294.65-7L294.65-7Q296-5.60 298-5.40L298-5.40L298-5.40Q297-2 293.35 0L293.35 0L293.35 0Q289.70 2 285.60 2L285.60 2L285.60 2Q281.50 2 278.75 0.45L278.75 0.45L278.75 0.45Q276-1.10 275.20-3.70L275.20-3.70L275.20-3.70Q273.60-1.20 270.20 0.40L270.20 0.40L270.20 0.40Q266.80 2 262.25 2L262.25 2L262.25 2Q257.70 2 254 0.80L254 0.80L254 0.80Q250.30-0.40 247.95-3ZM269.05-43.60L269.05-43.60L269.05-43.60Q267.90-41.80 266.90-38.75L266.90-38.75L266.90-38.75Q265.90-35.70 264.25-27.55L264.25-27.55L264.25-27.55Q262.60-19.40 262.60-13.60L262.60-13.60L262.60-13.60Q262.60-7.80 263.50-6.10L263.50-6.10L263.50-6.10Q264.40-4.40 266-4.40L266-4.40L266-4.40Q269.20-4.40 271.55-7.45L271.55-7.45L271.55-7.45Q273.90-10.50 274.80-15.90L274.80-15.90L280.10-45.20L280.10-45.20Q278-47 275.55-47L275.55-47L275.55-47Q273.10-47 271.65-46.20L271.65-46.20L271.65-46.20Q270.20-45.40 269.05-43.60ZM348.70 2L348.70 2L348.70 2Q336.60 2 336.60-7.40L336.60-7.40L336.60-7.40Q336.70-10 337.50-14.40L337.50-14.40L339.30-23.60L339.30-23.60Q342-36.60 342-39.50L342-39.50L342-39.50Q342-45.30 338.60-45.30L338.60-45.30L338.60-45.30Q332.90-45.30 329.90-30.40L329.90-30.40L324 0L303.90 2L314.30-51.10L330.70-53L329.10-43.20L329.10-43.20Q333.80-53 348.20-53L348.20-53L348.20-53Q355.20-53 358.15-50.05L358.15-50.05L358.15-50.05Q361.10-47.10 361.10-40.50L361.10-40.50L361.10-40.50Q361.10-34.30 357.90-19.80L357.90-19.80L357.90-19.80Q356.40-13.30 356.40-10.85L356.40-10.85L356.40-10.85Q356.40-8.40 357.75-7L357.75-7L357.75-7Q359.10-5.60 361.10-5.40L361.10-5.40L361.10-5.40Q360.10-2 356.65 0L356.65 0L356.65 0Q353.20 2 348.70 2ZM394.90-47.40L394.90-47.40L394.90-47.40Q400.30-53 411.70-53L411.70-53L411.70-53Q418-53 421.45-49.65L421.45-49.65L421.45-49.65Q424.90-46.30 424.90-40.15L424.90-40.15L424.90-40.15Q424.90-34 421.45-29.65L421.45-29.65L421.45-29.65Q418-25.30 411.60-23.50L411.60-23.50L411.60-23.50Q412.10-21.50 412.80-19.40L412.80-19.40L414.20-15.40L414.20-15.40Q416.10-10.30 417.60-8.50L417.60-8.50L417.60-8.50Q419.10-6.70 421.10-6.10L421.10-6.10L421.10-6.10Q420-2 416 0.20L416 0.20L416 0.20Q412.80 2 408.40 2L408.40 2L408.40 2Q395.50 2 393.80-17.90L393.80-17.90L393.80-17.90Q393.50-20.70 393.50-23.50L393.50-23.50L393.50-23.50Q398.50-24.90 402-29.60L402-29.60L402-29.60Q405.50-34.30 405.50-39.80L405.50-39.80L405.50-39.80Q405.50-45.30 401.60-45.30L401.60-45.30L401.60-45.30Q398.80-45.30 396.60-42.20L396.60-42.20L396.60-42.20Q394.40-39.10 393.40-33.80L393.40-33.80L386.80 0L366.60 2L380.60-70L400.70-72L398.40-60.10L398.40-60.10Q396.90-51.70 394.90-47.40Z" fill="#f0f5f6"></path></g></g><style>text {
  font-size: 64px;
  font-family: Arial Black;
  dominant-baseline: central;
  text-anchor: middle;
}</style></svg>