<svg width="547.1205078125px" height="336.8px" xmlns="http://www.w3.org/2000/svg" viewBox="-23.56025390625001 -93.4 547.1205078125 336.8" style="background: rgba(145, 38, 35, 0);" preserveAspectRatio="xMidYMid"><defs><filter id="editing-extrude-glow"><feFlood flood-color="#a2b4bc" result="flood-1"></feFlood><feMorphology operator="erode" radius="1" in="SourceAlpha" result="erode"></feMorphology><feComposite operator="in" in="flood-1" in2="erode" result="comp1"></feComposite><feConvolveMatrix order="3,3" divisor="1" in="comp1" result="convolve" kernelMatrix="0 0 0 1 1 1 0 0 0"></feConvolveMatrix><feOffset dx="-3" dy="0" in="convolve" result="extrude"></feOffset><feComposite operator="in" in="flood-1" in2="extrude" result="comp-extrude"></feComposite><feFlood flood-color="#7394a4" result="flood-2"></feFlood><feComposite operator="in" in="flood-2" in2="SourceAlpha" result="comp2"></feComposite><feMorphology operator="dilate" radius="1" in="comp2" result="dilate"></feMorphology><feOffset dx="-4.5" dy="0" in="dilate" result="offset"></feOffset><feGaussianBlur in="offset" stdDeviation="5.8" result="blur"></feGaussianBlur><feComponentTransfer in="blur" result="shadow"><feFuncA type="linear" slope="0.8" intercept="-0.2"></feFuncA></feComponentTransfer><feMerge><feMergeNode in="shadow"></feMergeNode><feMergeNode in="comp-extrude"></feMergeNode><feMergeNode in="SourceGraphic"></feMergeNode></feMerge></filter></defs><g filter="url(#editing-extrude-glow)"><g transform="translate(60.2949355840683, 145)"><path d="M88.80-30.80L88.80-30.80L88.80-30.80Q92.60-26 92.60-18.20L92.60-18.20L92.60-18.20Q92.60-7.40 84.60-1.70L84.60-1.70L84.60-1.70Q76.60 4 64 4L64 4L64 4Q56.80 4 45.80 2.40L45.80 2.40L45.80 2.40Q24.20-1 17.60-1L17.60-1L17.60-1Q11-1 8.40-0.70L8.40-0.70L8.40-0.70Q5.80-0.40 1.60 0L1.60 0L26.20-132L112.40-132L112.40-132Q112.40-119.80 106.50-113.40L106.50-113.40L106.50-113.40Q100.60-107 89-107L89-107L89-107Q77.40-107 65.60-112.40L65.60-112.40L59.40-77.40L95-77.40L95-77.40Q95-66.80 89.80-60.90L89.80-60.90L89.80-60.90Q84.60-55 75.90-55L75.90-55L75.90-55Q67.20-55 61.80-57L61.80-57L61.80-57Q56.40-59 55.80-59.60L55.80-59.60L48.60-21.80L48.60-21.80Q53.40-21.20 62.40-21.20L62.40-21.20L62.40-21.20Q77.80-21.20 88.80-30.80ZM192-64.40L232.40-68L232.40-68Q218-36.40 218 0.20L218 0.20L218 0.20Q212.60 4 204.70 4L204.70 4L204.70 4Q196.80 4 191.80 0.30L191.80 0.30L191.80 0.30Q186.80-3.40 185.80-7.20L185.80-7.20L185.80-7.20Q180.80-2 172.70 1L172.70 1L172.70 1Q164.60 4 156 4L156 4L156 4Q147.40 4 139.90 1.20L139.90 1.20L139.90 1.20Q132.40-1.60 126.60-7.80L126.60-7.80L126.60-7.80Q113.80-21.40 113.80-47.20L113.80-47.20L113.80-47.20Q113.80-87.20 135.20-111.20L135.20-111.20L135.20-111.20Q157.20-136 196.20-136L196.20-136L196.20-136Q223.20-136 232.80-122L232.80-122L232.80-122Q235.80-117.60 235.80-112.30L235.80-112.30L235.80-112.30Q235.80-107 233.50-102.50L233.50-102.50L233.50-102.50Q231.20-98 227.60-94.40L227.60-94.40L227.60-94.40Q219-86.40 208.40-86.40L208.40-86.40L208.40-86.40Q204.20-86.40 200.20-87.80L200.20-87.80L200.20-87.80Q201-93.80 201-100.80L201-100.80L201-100.80Q201-107.80 200.50-111L200.50-111L200.50-111Q200-114.20 198.80-116.80L198.80-116.80L198.80-116.80Q196.20-122.20 190.50-122.20L190.50-122.20L190.50-122.20Q184.80-122.20 178.50-116.10L178.50-116.10L178.50-116.10Q172.20-110 167.20-100L167.20-100L167.20-100Q156.20-77.60 156.20-50.60L156.20-50.60L156.20-50.60Q156.20-38.20 161-29.40L161-29.40L161-29.40Q166.20-19.80 175.40-19.80L175.40-19.80L175.40-19.80Q178.60-19.80 181.50-21.40L181.50-21.40L181.50-21.40Q184.40-23 185.60-24.20L185.60-24.20L192-64.40ZM283 0L240.40 0L263.20-121.60L265.40-132L308.20-132L283 0ZM364.20-11.80L364.20-11.80L364.20-11.80Q358.80 4 338 4L338 4L338 4Q322.60 4 312-14.40L312-14.40L312-14.40Q301.20-32.80 299.20-62.80L299.20-62.80L299.20-62.80Q321.20-103 336.40-119.60L336.40-119.60L336.40-119.60Q351-135.40 366.20-135.40L366.20-135.40L366.20-135.40Q374.40-135.40 380.30-131L380.30-131L380.30-131Q386.20-126.60 387.60-119.60L387.60-119.60L387.60-119.60Q380.80-116.80 377.60-114.60L377.60-114.60L377.60-114.60Q369.60-108.60 358.80-95.20L358.80-95.20L340.60-73.40L340.60-73.40Q336.20-68.20 334.40-65.80L334.40-65.80L334.40-65.80Q337.40-49 346.40-32.40L346.40-32.40L346.40-32.40Q355-16.60 364.20-11.80Z" fill="#f0f5f6"></path></g></g><style>text {
  font-size: 64px;
  font-family: Arial Black;
  dominant-baseline: central;
  text-anchor: middle;
}</style></svg>